G75*
%MOIN*%
%OFA0B0*%
%FSLAX25Y25*%
%IPPOS*%
%LPD*%
%AMOC8*
5,1,8,0,0,1.08239X$1,22.5*
%
%ADD10C,0.00000*%
%ADD11C,0.05543*%
%ADD12R,0.05150X0.05150*%
%ADD13C,0.16598*%
%ADD14C,0.15024*%
%ADD15C,0.06500*%
%ADD16R,0.06500X0.06500*%
%ADD17C,0.05200*%
%ADD18C,0.01000*%
%ADD19C,0.01600*%
%ADD20C,0.05315*%
%ADD21C,0.04000*%
D10*
X0006800Y0006800D02*
X0006800Y0191761D01*
X0207041Y0192041D01*
X0206851Y0006640D01*
X0006800Y0006800D01*
D11*
X0011800Y0011800D03*
X0011800Y0021800D03*
X0011800Y0031800D03*
X0011800Y0041800D03*
X0011800Y0051800D03*
X0011800Y0061800D03*
X0011800Y0081800D03*
X0011800Y0091800D03*
X0011800Y0101800D03*
X0011800Y0111800D03*
X0011800Y0121800D03*
X0011800Y0131800D03*
X0011800Y0141800D03*
X0011800Y0151800D03*
X0201800Y0146800D03*
X0201800Y0136800D03*
X0201800Y0126800D03*
X0201800Y0116800D03*
X0201800Y0106800D03*
X0201800Y0096800D03*
X0201800Y0081800D03*
X0201800Y0071800D03*
X0201800Y0061800D03*
X0201800Y0051800D03*
X0201800Y0041800D03*
X0201800Y0031800D03*
X0201800Y0021800D03*
X0201800Y0011800D03*
X0201800Y0156800D03*
X0201800Y0166800D03*
X0201800Y0176800D03*
X0201800Y0186800D03*
D12*
X0171800Y0176800D03*
X0161800Y0176800D03*
X0151800Y0176800D03*
X0141800Y0176800D03*
X0131800Y0176800D03*
X0121800Y0176800D03*
X0111800Y0176800D03*
X0101800Y0176800D03*
X0101800Y0126800D03*
X0111800Y0126800D03*
X0121800Y0126800D03*
X0131800Y0126800D03*
X0141800Y0126800D03*
X0151800Y0126800D03*
X0161800Y0126800D03*
X0171800Y0126800D03*
X0151800Y0081800D03*
X0141800Y0081800D03*
X0131800Y0081800D03*
X0121800Y0081800D03*
X0106800Y0061800D03*
X0106800Y0051800D03*
X0106800Y0041800D03*
X0106800Y0031800D03*
X0106800Y0021800D03*
X0106800Y0011800D03*
X0071800Y0086800D03*
X0061800Y0086800D03*
X0051800Y0086800D03*
X0041800Y0086800D03*
X0051800Y0104300D03*
X0061800Y0104300D03*
X0071800Y0104300D03*
X0071800Y0121800D03*
X0061800Y0121800D03*
X0051800Y0121800D03*
D13*
X0061800Y0060343D03*
X0151800Y0060343D03*
D14*
X0170698Y0049123D03*
X0151800Y0035737D03*
X0061800Y0035737D03*
X0042902Y0049123D03*
D15*
X0111800Y0101800D03*
D16*
X0101800Y0101800D03*
D17*
X0074400Y0141800D02*
X0069200Y0141800D01*
X0069200Y0151800D02*
X0074400Y0151800D01*
X0074400Y0161800D02*
X0069200Y0161800D01*
X0044400Y0161800D02*
X0039200Y0161800D01*
X0039200Y0151800D02*
X0044400Y0151800D01*
X0044400Y0141800D02*
X0039200Y0141800D01*
D18*
X0041800Y0141800D02*
X0041800Y0151800D01*
X0041800Y0161800D01*
X0061800Y0121800D02*
X0061800Y0104300D01*
X0051800Y0096800D02*
X0084300Y0096800D01*
X0106800Y0119300D01*
X0194300Y0119300D01*
X0201800Y0126800D01*
X0201800Y0116800D02*
X0200550Y0115550D01*
X0144300Y0115550D01*
X0108050Y0079300D01*
X0041800Y0079300D01*
X0041800Y0086800D01*
X0051800Y0086800D02*
X0051800Y0096800D01*
X0061800Y0088050D02*
X0061800Y0086800D01*
X0061800Y0088050D02*
X0068050Y0094300D01*
X0094300Y0094300D01*
X0101800Y0101800D01*
X0108050Y0075550D02*
X0138050Y0105550D01*
X0200550Y0105550D01*
X0201800Y0106800D01*
X0201800Y0096800D02*
X0183050Y0078050D01*
X0194300Y0074300D02*
X0201800Y0081800D01*
X0194300Y0074300D02*
X0116800Y0074300D01*
X0106800Y0061800D02*
X0131800Y0036800D01*
X0151800Y0036800D01*
X0151800Y0035737D01*
X0151800Y0036800D02*
X0159300Y0036800D01*
X0170550Y0048050D01*
X0170698Y0049123D01*
X0186800Y0046800D02*
X0201800Y0031800D01*
X0106800Y0031800D02*
X0104300Y0034300D01*
X0103050Y0034300D01*
X0078050Y0059300D01*
X0061800Y0059300D01*
X0061800Y0060343D01*
X0061800Y0060550D01*
X0060550Y0061800D01*
X0031800Y0061800D01*
X0011800Y0081800D01*
X0141800Y0176800D02*
X0151800Y0176800D01*
X0171800Y0176800D02*
X0171800Y0134300D01*
X0175550Y0134300D01*
X0183050Y0126800D01*
D19*
X0185576Y0124235D02*
X0196265Y0124235D01*
X0197584Y0125554D02*
X0193430Y0121400D01*
X0105930Y0121400D01*
X0104700Y0120170D01*
X0083430Y0098900D01*
X0050930Y0098900D01*
X0049700Y0097670D01*
X0049700Y0090975D01*
X0048562Y0090975D01*
X0047625Y0090038D01*
X0047625Y0083562D01*
X0048562Y0082625D01*
X0055038Y0082625D01*
X0055975Y0083562D01*
X0055975Y0090038D01*
X0055038Y0090975D01*
X0053900Y0090975D01*
X0053900Y0094700D01*
X0065480Y0094700D01*
X0061755Y0090975D01*
X0058562Y0090975D01*
X0057625Y0090038D01*
X0057625Y0083562D01*
X0058562Y0082625D01*
X0065038Y0082625D01*
X0065975Y0083562D01*
X0065975Y0089255D01*
X0068920Y0092200D01*
X0095170Y0092200D01*
X0096400Y0093430D01*
X0099920Y0096950D01*
X0105713Y0096950D01*
X0106650Y0097887D01*
X0106650Y0105713D01*
X0105713Y0106650D01*
X0097887Y0106650D01*
X0096950Y0105713D01*
X0096950Y0099920D01*
X0093430Y0096400D01*
X0086870Y0096400D01*
X0107670Y0117200D01*
X0142980Y0117200D01*
X0142200Y0116420D01*
X0107180Y0081400D01*
X0043900Y0081400D01*
X0043900Y0082625D01*
X0045038Y0082625D01*
X0045975Y0083562D01*
X0045975Y0090038D01*
X0045038Y0090975D01*
X0038562Y0090975D01*
X0037625Y0090038D01*
X0037625Y0083562D01*
X0038562Y0082625D01*
X0039700Y0082625D01*
X0039700Y0078430D01*
X0040930Y0077200D01*
X0104837Y0077200D01*
X0104450Y0076266D01*
X0104450Y0074834D01*
X0104998Y0073511D01*
X0106011Y0072498D01*
X0107334Y0071950D01*
X0108766Y0071950D01*
X0110089Y0072498D01*
X0111102Y0073511D01*
X0111650Y0074834D01*
X0111650Y0076180D01*
X0117625Y0082155D01*
X0117625Y0078562D01*
X0118562Y0077625D01*
X0125038Y0077625D01*
X0125975Y0078562D01*
X0125975Y0085038D01*
X0125038Y0085975D01*
X0121445Y0085975D01*
X0138920Y0103450D01*
X0198968Y0103450D01*
X0199324Y0103094D01*
X0200930Y0102428D01*
X0202149Y0102428D01*
X0202148Y0101172D01*
X0200930Y0101172D01*
X0199324Y0100506D01*
X0198094Y0099276D01*
X0197428Y0097670D01*
X0197428Y0095930D01*
X0197584Y0095554D01*
X0183680Y0081650D01*
X0182334Y0081650D01*
X0181011Y0081102D01*
X0179998Y0080089D01*
X0179450Y0078766D01*
X0179450Y0077334D01*
X0179837Y0076400D01*
X0119791Y0076400D01*
X0118839Y0077352D01*
X0117516Y0077900D01*
X0116084Y0077900D01*
X0114761Y0077352D01*
X0113748Y0076339D01*
X0113200Y0075016D01*
X0113200Y0073584D01*
X0113748Y0072261D01*
X0114761Y0071248D01*
X0116084Y0070700D01*
X0117516Y0070700D01*
X0118839Y0071248D01*
X0119791Y0072200D01*
X0195170Y0072200D01*
X0200554Y0077584D01*
X0200930Y0077428D01*
X0202123Y0077428D01*
X0202122Y0076172D01*
X0200930Y0076172D01*
X0199324Y0075506D01*
X0198094Y0074276D01*
X0197428Y0072670D01*
X0197428Y0070930D01*
X0198094Y0069324D01*
X0199324Y0068094D01*
X0200930Y0067428D01*
X0202113Y0067428D01*
X0202112Y0066172D01*
X0200930Y0066172D01*
X0199324Y0065506D01*
X0198094Y0064276D01*
X0197428Y0062670D01*
X0197428Y0060930D01*
X0198094Y0059324D01*
X0199324Y0058094D01*
X0200930Y0057428D01*
X0202103Y0057428D01*
X0202102Y0056172D01*
X0200930Y0056172D01*
X0199324Y0055506D01*
X0198094Y0054276D01*
X0197428Y0052670D01*
X0197428Y0050930D01*
X0198094Y0049324D01*
X0199324Y0048094D01*
X0200930Y0047428D01*
X0202093Y0047428D01*
X0202091Y0046172D01*
X0200930Y0046172D01*
X0199324Y0045506D01*
X0198094Y0044276D01*
X0197428Y0042670D01*
X0197428Y0040930D01*
X0198094Y0039324D01*
X0199324Y0038094D01*
X0200930Y0037428D01*
X0202082Y0037428D01*
X0202081Y0036172D01*
X0200930Y0036172D01*
X0200554Y0036016D01*
X0190400Y0046170D01*
X0190400Y0047516D01*
X0189852Y0048839D01*
X0188839Y0049852D01*
X0187516Y0050400D01*
X0186084Y0050400D01*
X0184761Y0049852D01*
X0183748Y0048839D01*
X0183200Y0047516D01*
X0183200Y0046084D01*
X0183748Y0044761D01*
X0184761Y0043748D01*
X0186084Y0043200D01*
X0187430Y0043200D01*
X0197584Y0033046D01*
X0197428Y0032670D01*
X0197428Y0030930D01*
X0198094Y0029324D01*
X0199324Y0028094D01*
X0200930Y0027428D01*
X0202072Y0027428D01*
X0202071Y0026172D01*
X0200930Y0026172D01*
X0199324Y0025506D01*
X0198094Y0024276D01*
X0197428Y0022670D01*
X0197428Y0020930D01*
X0198094Y0019324D01*
X0199324Y0018094D01*
X0200930Y0017428D01*
X0202062Y0017428D01*
X0202061Y0016172D01*
X0200930Y0016172D01*
X0199324Y0015506D01*
X0198094Y0014276D01*
X0197428Y0012670D01*
X0197428Y0011448D01*
X0110975Y0011517D01*
X0110975Y0015038D01*
X0110038Y0015975D01*
X0103562Y0015975D01*
X0102625Y0015038D01*
X0102625Y0011523D01*
X0016172Y0011592D01*
X0016172Y0012670D01*
X0015506Y0014276D01*
X0014276Y0015506D01*
X0012670Y0016172D01*
X0011600Y0016172D01*
X0011600Y0017428D01*
X0012670Y0017428D01*
X0014276Y0018094D01*
X0015506Y0019324D01*
X0016172Y0020930D01*
X0016172Y0022670D01*
X0015506Y0024276D01*
X0014276Y0025506D01*
X0012670Y0026172D01*
X0011600Y0026172D01*
X0011600Y0027428D01*
X0012670Y0027428D01*
X0014276Y0028094D01*
X0015506Y0029324D01*
X0016172Y0030930D01*
X0016172Y0032670D01*
X0015506Y0034276D01*
X0014276Y0035506D01*
X0012670Y0036172D01*
X0011600Y0036172D01*
X0011600Y0037428D01*
X0012670Y0037428D01*
X0014276Y0038094D01*
X0015506Y0039324D01*
X0016172Y0040930D01*
X0016172Y0042670D01*
X0015506Y0044276D01*
X0014276Y0045506D01*
X0012670Y0046172D01*
X0011600Y0046172D01*
X0011600Y0047428D01*
X0012670Y0047428D01*
X0014276Y0048094D01*
X0015506Y0049324D01*
X0016172Y0050930D01*
X0016172Y0052670D01*
X0015506Y0054276D01*
X0014276Y0055506D01*
X0012670Y0056172D01*
X0011600Y0056172D01*
X0011600Y0057428D01*
X0012670Y0057428D01*
X0014276Y0058094D01*
X0015506Y0059324D01*
X0016172Y0060930D01*
X0016172Y0062670D01*
X0015506Y0064276D01*
X0014276Y0065506D01*
X0012670Y0066172D01*
X0011600Y0066172D01*
X0011600Y0077428D01*
X0012670Y0077428D01*
X0013046Y0077584D01*
X0029700Y0060930D01*
X0030930Y0059700D01*
X0051901Y0059700D01*
X0051901Y0058374D01*
X0053408Y0054736D01*
X0056193Y0051951D01*
X0059831Y0050444D01*
X0063769Y0050444D01*
X0067407Y0051951D01*
X0070192Y0054736D01*
X0071213Y0057200D01*
X0077180Y0057200D01*
X0102180Y0032200D01*
X0102625Y0032200D01*
X0102625Y0028562D01*
X0103562Y0027625D01*
X0110038Y0027625D01*
X0110975Y0028562D01*
X0110975Y0035038D01*
X0110038Y0035975D01*
X0105595Y0035975D01*
X0105170Y0036400D01*
X0103920Y0036400D01*
X0080150Y0060170D01*
X0078920Y0061400D01*
X0071699Y0061400D01*
X0071699Y0062312D01*
X0070192Y0065951D01*
X0067407Y0068735D01*
X0063769Y0070243D01*
X0059831Y0070243D01*
X0056193Y0068735D01*
X0053408Y0065951D01*
X0052558Y0063900D01*
X0032670Y0063900D01*
X0016016Y0080554D01*
X0016172Y0080930D01*
X0016172Y0082670D01*
X0015506Y0084276D01*
X0014276Y0085506D01*
X0012670Y0086172D01*
X0011600Y0086172D01*
X0011600Y0087228D01*
X0011714Y0087228D01*
X0011714Y0091714D01*
X0011886Y0091714D01*
X0011886Y0091886D01*
X0011714Y0091886D01*
X0011714Y0096372D01*
X0011600Y0096372D01*
X0011600Y0097228D01*
X0011714Y0097228D01*
X0011714Y0101714D01*
X0011886Y0101714D01*
X0011886Y0101886D01*
X0011714Y0101886D01*
X0011714Y0106372D01*
X0011600Y0106372D01*
X0011600Y0107428D01*
X0012670Y0107428D01*
X0014276Y0108094D01*
X0015506Y0109324D01*
X0016172Y0110930D01*
X0016172Y0112670D01*
X0015506Y0114276D01*
X0014276Y0115506D01*
X0012670Y0116172D01*
X0011600Y0116172D01*
X0011600Y0117428D01*
X0012670Y0117428D01*
X0014276Y0118094D01*
X0015506Y0119324D01*
X0016172Y0120930D01*
X0016172Y0122670D01*
X0015506Y0124276D01*
X0014276Y0125506D01*
X0012670Y0126172D01*
X0011600Y0126172D01*
X0011600Y0127428D01*
X0012670Y0127428D01*
X0014276Y0128094D01*
X0015506Y0129324D01*
X0016172Y0130930D01*
X0016172Y0132670D01*
X0015506Y0134276D01*
X0014276Y0135506D01*
X0012670Y0136172D01*
X0011600Y0136172D01*
X0011600Y0137428D01*
X0012670Y0137428D01*
X0014276Y0138094D01*
X0015506Y0139324D01*
X0016172Y0140930D01*
X0016172Y0142670D01*
X0015506Y0144276D01*
X0014276Y0145506D01*
X0012670Y0146172D01*
X0011600Y0146172D01*
X0011600Y0147428D01*
X0012670Y0147428D01*
X0014276Y0148094D01*
X0015506Y0149324D01*
X0016172Y0150930D01*
X0016172Y0152670D01*
X0015506Y0154276D01*
X0014276Y0155506D01*
X0012670Y0156172D01*
X0011600Y0156172D01*
X0011600Y0186967D01*
X0197428Y0187227D01*
X0197428Y0185930D01*
X0198094Y0184324D01*
X0199324Y0183094D01*
X0200930Y0182428D01*
X0202231Y0182428D01*
X0202230Y0181172D01*
X0200930Y0181172D01*
X0199324Y0180506D01*
X0198094Y0179276D01*
X0197428Y0177670D01*
X0197428Y0175930D01*
X0198094Y0174324D01*
X0199324Y0173094D01*
X0200930Y0172428D01*
X0202221Y0172428D01*
X0202219Y0171172D01*
X0200930Y0171172D01*
X0199324Y0170506D01*
X0198094Y0169276D01*
X0197428Y0167670D01*
X0197428Y0165930D01*
X0198094Y0164324D01*
X0199324Y0163094D01*
X0200930Y0162428D01*
X0202210Y0162428D01*
X0202209Y0161364D01*
X0202160Y0161372D01*
X0201886Y0161372D01*
X0201886Y0156886D01*
X0201714Y0156886D01*
X0201714Y0161372D01*
X0201440Y0161372D01*
X0200729Y0161259D01*
X0200045Y0161037D01*
X0199404Y0160710D01*
X0198822Y0160287D01*
X0198313Y0159778D01*
X0197890Y0159196D01*
X0197563Y0158555D01*
X0197341Y0157871D01*
X0197228Y0157160D01*
X0197228Y0156886D01*
X0201714Y0156886D01*
X0201714Y0156714D01*
X0201886Y0156714D01*
X0201886Y0152228D01*
X0202160Y0152228D01*
X0202200Y0152235D01*
X0202199Y0151172D01*
X0200930Y0151172D01*
X0199324Y0150506D01*
X0198094Y0149276D01*
X0197428Y0147670D01*
X0197428Y0145930D01*
X0198094Y0144324D01*
X0199324Y0143094D01*
X0200930Y0142428D01*
X0202190Y0142428D01*
X0202189Y0141172D01*
X0200930Y0141172D01*
X0199324Y0140506D01*
X0198094Y0139276D01*
X0197428Y0137670D01*
X0197428Y0135930D01*
X0198094Y0134324D01*
X0199324Y0133094D01*
X0200930Y0132428D01*
X0202180Y0132428D01*
X0202178Y0131172D01*
X0200930Y0131172D01*
X0199324Y0130506D01*
X0198094Y0129276D01*
X0197428Y0127670D01*
X0197428Y0125930D01*
X0197584Y0125554D01*
X0197469Y0125833D02*
X0186546Y0125833D01*
X0186650Y0126084D02*
X0186650Y0127516D01*
X0186102Y0128839D01*
X0185089Y0129852D01*
X0183766Y0130400D01*
X0182420Y0130400D01*
X0176420Y0136400D01*
X0173900Y0136400D01*
X0173900Y0172625D01*
X0175038Y0172625D01*
X0175975Y0173562D01*
X0175975Y0180038D01*
X0175038Y0180975D01*
X0168562Y0180975D01*
X0167625Y0180038D01*
X0167625Y0173562D01*
X0168562Y0172625D01*
X0169700Y0172625D01*
X0169700Y0133430D01*
X0170930Y0132200D01*
X0174680Y0132200D01*
X0179450Y0127430D01*
X0179450Y0126084D01*
X0179998Y0124761D01*
X0181011Y0123748D01*
X0182334Y0123200D01*
X0183766Y0123200D01*
X0185089Y0123748D01*
X0186102Y0124761D01*
X0186650Y0126084D01*
X0186650Y0127432D02*
X0197428Y0127432D01*
X0197992Y0129030D02*
X0185911Y0129030D01*
X0182191Y0130629D02*
X0199620Y0130629D01*
X0202180Y0132227D02*
X0180593Y0132227D01*
X0178994Y0133826D02*
X0198592Y0133826D01*
X0197638Y0135424D02*
X0177395Y0135424D01*
X0173900Y0137023D02*
X0197428Y0137023D01*
X0197823Y0138621D02*
X0173900Y0138621D01*
X0173900Y0140220D02*
X0199037Y0140220D01*
X0202189Y0141818D02*
X0173900Y0141818D01*
X0173900Y0143417D02*
X0199001Y0143417D01*
X0197807Y0145015D02*
X0173900Y0145015D01*
X0173900Y0146614D02*
X0197428Y0146614D01*
X0197653Y0148212D02*
X0173900Y0148212D01*
X0173900Y0149811D02*
X0198628Y0149811D01*
X0200045Y0152563D02*
X0200729Y0152341D01*
X0201440Y0152228D01*
X0201714Y0152228D01*
X0201714Y0156714D01*
X0197228Y0156714D01*
X0197228Y0156440D01*
X0197341Y0155729D01*
X0197563Y0155045D01*
X0197890Y0154404D01*
X0198313Y0153822D01*
X0198822Y0153313D01*
X0199404Y0152890D01*
X0200045Y0152563D01*
X0199242Y0153008D02*
X0173900Y0153008D01*
X0173900Y0154606D02*
X0197787Y0154606D01*
X0197266Y0156205D02*
X0173900Y0156205D01*
X0173900Y0157803D02*
X0197330Y0157803D01*
X0198040Y0159402D02*
X0173900Y0159402D01*
X0173900Y0161001D02*
X0199974Y0161001D01*
X0200518Y0162599D02*
X0173900Y0162599D01*
X0173900Y0164198D02*
X0198220Y0164198D01*
X0197484Y0165796D02*
X0173900Y0165796D01*
X0173900Y0167395D02*
X0197428Y0167395D01*
X0197977Y0168993D02*
X0173900Y0168993D01*
X0173900Y0170592D02*
X0199530Y0170592D01*
X0202220Y0172190D02*
X0173900Y0172190D01*
X0175975Y0173789D02*
X0198629Y0173789D01*
X0197653Y0175387D02*
X0175975Y0175387D01*
X0175975Y0176986D02*
X0197428Y0176986D01*
X0197807Y0178584D02*
X0175975Y0178584D01*
X0175830Y0180183D02*
X0199000Y0180183D01*
X0202230Y0181781D02*
X0011600Y0181781D01*
X0011600Y0180183D02*
X0097770Y0180183D01*
X0097625Y0180038D02*
X0097625Y0173562D01*
X0098562Y0172625D01*
X0105038Y0172625D01*
X0105975Y0173562D01*
X0105975Y0180038D01*
X0105038Y0180975D01*
X0098562Y0180975D01*
X0097625Y0180038D01*
X0097625Y0178584D02*
X0011600Y0178584D01*
X0011600Y0176986D02*
X0097625Y0176986D01*
X0097625Y0175387D02*
X0011600Y0175387D01*
X0011600Y0173789D02*
X0097625Y0173789D01*
X0105975Y0173789D02*
X0107625Y0173789D01*
X0107625Y0173562D02*
X0108562Y0172625D01*
X0115038Y0172625D01*
X0115975Y0173562D01*
X0115975Y0180038D01*
X0115038Y0180975D01*
X0108562Y0180975D01*
X0107625Y0180038D01*
X0107625Y0173562D01*
X0107625Y0175387D02*
X0105975Y0175387D01*
X0105975Y0176986D02*
X0107625Y0176986D01*
X0107625Y0178584D02*
X0105975Y0178584D01*
X0105830Y0180183D02*
X0107770Y0180183D01*
X0115830Y0180183D02*
X0117770Y0180183D01*
X0117625Y0180038D02*
X0117625Y0173562D01*
X0118562Y0172625D01*
X0125038Y0172625D01*
X0125975Y0173562D01*
X0125975Y0180038D01*
X0125038Y0180975D01*
X0118562Y0180975D01*
X0117625Y0180038D01*
X0117625Y0178584D02*
X0115975Y0178584D01*
X0115975Y0176986D02*
X0117625Y0176986D01*
X0117625Y0175387D02*
X0115975Y0175387D01*
X0115975Y0173789D02*
X0117625Y0173789D01*
X0125975Y0173789D02*
X0127625Y0173789D01*
X0127625Y0173562D02*
X0128562Y0172625D01*
X0135038Y0172625D01*
X0135975Y0173562D01*
X0135975Y0180038D01*
X0135038Y0180975D01*
X0128562Y0180975D01*
X0127625Y0180038D01*
X0127625Y0173562D01*
X0127625Y0175387D02*
X0125975Y0175387D01*
X0125975Y0176986D02*
X0127625Y0176986D01*
X0127625Y0178584D02*
X0125975Y0178584D01*
X0125830Y0180183D02*
X0127770Y0180183D01*
X0135830Y0180183D02*
X0137770Y0180183D01*
X0137625Y0180038D02*
X0137625Y0173562D01*
X0138562Y0172625D01*
X0145038Y0172625D01*
X0145975Y0173562D01*
X0145975Y0174700D01*
X0147625Y0174700D01*
X0147625Y0173562D01*
X0148562Y0172625D01*
X0155038Y0172625D01*
X0155975Y0173562D01*
X0155975Y0180038D01*
X0155038Y0180975D01*
X0148562Y0180975D01*
X0147625Y0180038D01*
X0147625Y0178900D01*
X0145975Y0178900D01*
X0145975Y0180038D01*
X0145038Y0180975D01*
X0138562Y0180975D01*
X0137625Y0180038D01*
X0137625Y0178584D02*
X0135975Y0178584D01*
X0135975Y0176986D02*
X0137625Y0176986D01*
X0137625Y0175387D02*
X0135975Y0175387D01*
X0135975Y0173789D02*
X0137625Y0173789D01*
X0145975Y0173789D02*
X0147625Y0173789D01*
X0147770Y0180183D02*
X0145830Y0180183D01*
X0155830Y0180183D02*
X0157770Y0180183D01*
X0157625Y0180038D02*
X0157625Y0173562D01*
X0158562Y0172625D01*
X0165038Y0172625D01*
X0165975Y0173562D01*
X0165975Y0180038D01*
X0165038Y0180975D01*
X0158562Y0180975D01*
X0157625Y0180038D01*
X0157625Y0178584D02*
X0155975Y0178584D01*
X0155975Y0176986D02*
X0157625Y0176986D01*
X0157625Y0175387D02*
X0155975Y0175387D01*
X0155975Y0173789D02*
X0157625Y0173789D01*
X0165975Y0173789D02*
X0167625Y0173789D01*
X0167625Y0175387D02*
X0165975Y0175387D01*
X0165975Y0176986D02*
X0167625Y0176986D01*
X0167625Y0178584D02*
X0165975Y0178584D01*
X0165830Y0180183D02*
X0167770Y0180183D01*
X0169700Y0172190D02*
X0011600Y0172190D01*
X0011600Y0170592D02*
X0169700Y0170592D01*
X0169700Y0168993D02*
X0011600Y0168993D01*
X0011600Y0167395D02*
X0169700Y0167395D01*
X0169700Y0165796D02*
X0075728Y0165796D01*
X0075235Y0166000D02*
X0068365Y0166000D01*
X0066821Y0165361D01*
X0065639Y0164179D01*
X0065000Y0162635D01*
X0065000Y0160965D01*
X0065639Y0159421D01*
X0066821Y0158239D01*
X0068365Y0157600D01*
X0075235Y0157600D01*
X0076779Y0158239D01*
X0077961Y0159421D01*
X0078600Y0160965D01*
X0078600Y0162635D01*
X0077961Y0164179D01*
X0076779Y0165361D01*
X0075235Y0166000D01*
X0077942Y0164198D02*
X0169700Y0164198D01*
X0169700Y0162599D02*
X0078600Y0162599D01*
X0078600Y0161001D02*
X0169700Y0161001D01*
X0169700Y0159402D02*
X0077942Y0159402D01*
X0075727Y0157803D02*
X0169700Y0157803D01*
X0169700Y0156205D02*
X0043900Y0156205D01*
X0043900Y0156000D02*
X0043900Y0157600D01*
X0045235Y0157600D01*
X0046779Y0158239D01*
X0047961Y0159421D01*
X0048600Y0160965D01*
X0048600Y0162635D01*
X0047961Y0164179D01*
X0046779Y0165361D01*
X0045235Y0166000D01*
X0038365Y0166000D01*
X0036821Y0165361D01*
X0035639Y0164179D01*
X0035000Y0162635D01*
X0035000Y0160965D01*
X0035639Y0159421D01*
X0036821Y0158239D01*
X0038365Y0157600D01*
X0039700Y0157600D01*
X0039700Y0156000D01*
X0038365Y0156000D01*
X0036821Y0155361D01*
X0035639Y0154179D01*
X0035000Y0152635D01*
X0035000Y0150965D01*
X0035639Y0149421D01*
X0036821Y0148239D01*
X0038365Y0147600D01*
X0039700Y0147600D01*
X0039700Y0146000D01*
X0038365Y0146000D01*
X0036821Y0145361D01*
X0035639Y0144179D01*
X0035000Y0142635D01*
X0035000Y0140965D01*
X0035639Y0139421D01*
X0036821Y0138239D01*
X0038365Y0137600D01*
X0045235Y0137600D01*
X0046779Y0138239D01*
X0047961Y0139421D01*
X0048600Y0140965D01*
X0048600Y0142635D01*
X0047961Y0144179D01*
X0046779Y0145361D01*
X0045235Y0146000D01*
X0043900Y0146000D01*
X0043900Y0147600D01*
X0045235Y0147600D01*
X0046779Y0148239D01*
X0047961Y0149421D01*
X0048600Y0150965D01*
X0048600Y0152635D01*
X0047961Y0154179D01*
X0046779Y0155361D01*
X0045235Y0156000D01*
X0043900Y0156000D01*
X0045727Y0157803D02*
X0067873Y0157803D01*
X0068365Y0156000D02*
X0066821Y0155361D01*
X0065639Y0154179D01*
X0065000Y0152635D01*
X0065000Y0150965D01*
X0065639Y0149421D01*
X0066821Y0148239D01*
X0068365Y0147600D01*
X0075235Y0147600D01*
X0076779Y0148239D01*
X0077961Y0149421D01*
X0078600Y0150965D01*
X0078600Y0152635D01*
X0077961Y0154179D01*
X0076779Y0155361D01*
X0075235Y0156000D01*
X0068365Y0156000D01*
X0066067Y0154606D02*
X0047533Y0154606D01*
X0048446Y0153008D02*
X0065154Y0153008D01*
X0065000Y0151409D02*
X0048600Y0151409D01*
X0048122Y0149811D02*
X0065478Y0149811D01*
X0066886Y0148212D02*
X0046714Y0148212D01*
X0047124Y0145015D02*
X0066476Y0145015D01*
X0066821Y0145361D02*
X0065639Y0144179D01*
X0065000Y0142635D01*
X0065000Y0140965D01*
X0065639Y0139421D01*
X0066821Y0138239D01*
X0068365Y0137600D01*
X0075235Y0137600D01*
X0076779Y0138239D01*
X0077961Y0139421D01*
X0078600Y0140965D01*
X0078600Y0142635D01*
X0077961Y0144179D01*
X0076779Y0145361D01*
X0075235Y0146000D01*
X0068365Y0146000D01*
X0066821Y0145361D01*
X0065324Y0143417D02*
X0048276Y0143417D01*
X0048600Y0141818D02*
X0065000Y0141818D01*
X0065308Y0140220D02*
X0048292Y0140220D01*
X0047161Y0138621D02*
X0066439Y0138621D01*
X0077161Y0138621D02*
X0169700Y0138621D01*
X0169700Y0137023D02*
X0011600Y0137023D01*
X0014358Y0135424D02*
X0169700Y0135424D01*
X0169700Y0133826D02*
X0015693Y0133826D01*
X0016172Y0132227D02*
X0170903Y0132227D01*
X0171800Y0131175D02*
X0168988Y0131175D01*
X0168530Y0131052D01*
X0168120Y0130815D01*
X0167785Y0130480D01*
X0167548Y0130070D01*
X0167425Y0129612D01*
X0167425Y0126800D01*
X0171800Y0126800D01*
X0171800Y0126800D01*
X0171800Y0131175D01*
X0171800Y0126800D01*
X0176175Y0126800D01*
X0176175Y0129612D01*
X0176052Y0130070D01*
X0175815Y0130480D01*
X0175480Y0130815D01*
X0175070Y0131052D01*
X0174612Y0131175D01*
X0171800Y0131175D01*
X0171800Y0130629D02*
X0171800Y0130629D01*
X0171800Y0129030D02*
X0171800Y0129030D01*
X0171800Y0127432D02*
X0171800Y0127432D01*
X0171800Y0126800D02*
X0171800Y0126800D01*
X0176175Y0126800D01*
X0176175Y0123988D01*
X0176052Y0123530D01*
X0175815Y0123120D01*
X0175480Y0122785D01*
X0175070Y0122548D01*
X0174612Y0122425D01*
X0171800Y0122425D01*
X0171800Y0126800D01*
X0171800Y0126800D01*
X0171800Y0126800D01*
X0171800Y0122425D01*
X0168988Y0122425D01*
X0168530Y0122548D01*
X0168120Y0122785D01*
X0167785Y0123120D01*
X0167548Y0123530D01*
X0167425Y0123988D01*
X0167425Y0126800D01*
X0171800Y0126800D01*
X0171800Y0125833D02*
X0171800Y0125833D01*
X0171800Y0124235D02*
X0171800Y0124235D01*
X0171800Y0122636D02*
X0171800Y0122636D01*
X0175223Y0122636D02*
X0194666Y0122636D01*
X0180524Y0124235D02*
X0176175Y0124235D01*
X0176175Y0125833D02*
X0179554Y0125833D01*
X0179448Y0127432D02*
X0176175Y0127432D01*
X0176175Y0129030D02*
X0177850Y0129030D01*
X0176251Y0130629D02*
X0175666Y0130629D01*
X0167934Y0130629D02*
X0165384Y0130629D01*
X0165038Y0130975D02*
X0165975Y0130038D01*
X0165975Y0123562D01*
X0165038Y0122625D01*
X0158562Y0122625D01*
X0157625Y0123562D01*
X0157625Y0130038D01*
X0158562Y0130975D01*
X0165038Y0130975D01*
X0165975Y0129030D02*
X0167425Y0129030D01*
X0167425Y0127432D02*
X0165975Y0127432D01*
X0165975Y0125833D02*
X0167425Y0125833D01*
X0167425Y0124235D02*
X0165975Y0124235D01*
X0165049Y0122636D02*
X0168377Y0122636D01*
X0158551Y0122636D02*
X0155049Y0122636D01*
X0155038Y0122625D02*
X0155975Y0123562D01*
X0155975Y0130038D01*
X0155038Y0130975D01*
X0148562Y0130975D01*
X0147625Y0130038D01*
X0147625Y0123562D01*
X0148562Y0122625D01*
X0155038Y0122625D01*
X0155975Y0124235D02*
X0157625Y0124235D01*
X0157625Y0125833D02*
X0155975Y0125833D01*
X0155975Y0127432D02*
X0157625Y0127432D01*
X0157625Y0129030D02*
X0155975Y0129030D01*
X0155384Y0130629D02*
X0158216Y0130629D01*
X0148216Y0130629D02*
X0145384Y0130629D01*
X0145038Y0130975D02*
X0145975Y0130038D01*
X0145975Y0123562D01*
X0145038Y0122625D01*
X0138562Y0122625D01*
X0137625Y0123562D01*
X0137625Y0130038D01*
X0138562Y0130975D01*
X0145038Y0130975D01*
X0145975Y0129030D02*
X0147625Y0129030D01*
X0147625Y0127432D02*
X0145975Y0127432D01*
X0145975Y0125833D02*
X0147625Y0125833D01*
X0147625Y0124235D02*
X0145975Y0124235D01*
X0145049Y0122636D02*
X0148551Y0122636D01*
X0142022Y0116242D02*
X0106712Y0116242D01*
X0105114Y0114644D02*
X0140424Y0114644D01*
X0138825Y0113045D02*
X0103515Y0113045D01*
X0101916Y0111447D02*
X0137227Y0111447D01*
X0135628Y0109848D02*
X0100318Y0109848D01*
X0098719Y0108250D02*
X0134030Y0108250D01*
X0132431Y0106651D02*
X0113212Y0106651D01*
X0112983Y0106726D02*
X0113739Y0106480D01*
X0114447Y0106119D01*
X0115090Y0105652D01*
X0115652Y0105090D01*
X0116119Y0104447D01*
X0116480Y0103739D01*
X0116726Y0102983D01*
X0116850Y0102197D01*
X0116850Y0101800D01*
X0111800Y0101800D01*
X0111800Y0101800D01*
X0111800Y0101800D01*
X0111800Y0106850D01*
X0112197Y0106850D01*
X0112983Y0106726D01*
X0111800Y0106651D02*
X0111800Y0106651D01*
X0111800Y0106850D02*
X0111403Y0106850D01*
X0110617Y0106726D01*
X0109861Y0106480D01*
X0109153Y0106119D01*
X0108510Y0105652D01*
X0107948Y0105090D01*
X0107481Y0104447D01*
X0107120Y0103739D01*
X0106874Y0102983D01*
X0106750Y0102197D01*
X0106750Y0101800D01*
X0111800Y0101800D01*
X0116850Y0101800D01*
X0116850Y0101403D01*
X0116726Y0100617D01*
X0116480Y0099861D01*
X0116119Y0099153D01*
X0115652Y0098510D01*
X0115090Y0097948D01*
X0114447Y0097481D01*
X0113739Y0097120D01*
X0112983Y0096874D01*
X0112197Y0096750D01*
X0111800Y0096750D01*
X0111800Y0101800D01*
X0111800Y0101800D01*
X0111800Y0101800D01*
X0111800Y0106850D01*
X0110388Y0106651D02*
X0097121Y0106651D01*
X0096950Y0105053D02*
X0095522Y0105053D01*
X0096950Y0103454D02*
X0093924Y0103454D01*
X0092325Y0101856D02*
X0096950Y0101856D01*
X0096950Y0100257D02*
X0090727Y0100257D01*
X0089128Y0098659D02*
X0095689Y0098659D01*
X0094090Y0097060D02*
X0087530Y0097060D01*
X0084787Y0100257D02*
X0075169Y0100257D01*
X0075038Y0100125D02*
X0075975Y0101062D01*
X0075975Y0107538D01*
X0075038Y0108475D01*
X0068562Y0108475D01*
X0067625Y0107538D01*
X0067625Y0101062D01*
X0068562Y0100125D01*
X0075038Y0100125D01*
X0075975Y0101856D02*
X0086386Y0101856D01*
X0087984Y0103454D02*
X0075975Y0103454D01*
X0075975Y0105053D02*
X0089583Y0105053D01*
X0091181Y0106651D02*
X0075975Y0106651D01*
X0075263Y0108250D02*
X0092780Y0108250D01*
X0094378Y0109848D02*
X0063900Y0109848D01*
X0063900Y0108475D02*
X0063900Y0117625D01*
X0065038Y0117625D01*
X0065975Y0118562D01*
X0065975Y0125038D01*
X0065038Y0125975D01*
X0058562Y0125975D01*
X0057625Y0125038D01*
X0057625Y0118562D01*
X0058562Y0117625D01*
X0059700Y0117625D01*
X0059700Y0108475D01*
X0058562Y0108475D01*
X0057625Y0107538D01*
X0057625Y0101062D01*
X0058562Y0100125D01*
X0065038Y0100125D01*
X0065975Y0101062D01*
X0065975Y0107538D01*
X0065038Y0108475D01*
X0063900Y0108475D01*
X0065263Y0108250D02*
X0068337Y0108250D01*
X0067625Y0106651D02*
X0065975Y0106651D01*
X0065975Y0105053D02*
X0067625Y0105053D01*
X0067625Y0103454D02*
X0065975Y0103454D01*
X0065975Y0101856D02*
X0067625Y0101856D01*
X0068431Y0100257D02*
X0065169Y0100257D01*
X0064643Y0093863D02*
X0053900Y0093863D01*
X0053900Y0092265D02*
X0063045Y0092265D01*
X0065975Y0089068D02*
X0067425Y0089068D01*
X0067425Y0089612D02*
X0067425Y0086800D01*
X0071800Y0086800D01*
X0071800Y0086800D01*
X0071800Y0091175D01*
X0068988Y0091175D01*
X0068530Y0091052D01*
X0068120Y0090815D01*
X0067785Y0090480D01*
X0067548Y0090070D01*
X0067425Y0089612D01*
X0067386Y0090666D02*
X0067971Y0090666D01*
X0067425Y0087469D02*
X0065975Y0087469D01*
X0067425Y0086800D02*
X0067425Y0083988D01*
X0067548Y0083530D01*
X0067785Y0083120D01*
X0068120Y0082785D01*
X0068530Y0082548D01*
X0068988Y0082425D01*
X0071800Y0082425D01*
X0074612Y0082425D01*
X0075070Y0082548D01*
X0075480Y0082785D01*
X0075815Y0083120D01*
X0076052Y0083530D01*
X0076175Y0083988D01*
X0076175Y0086800D01*
X0076175Y0089612D01*
X0076052Y0090070D01*
X0075815Y0090480D01*
X0075480Y0090815D01*
X0075070Y0091052D01*
X0074612Y0091175D01*
X0071800Y0091175D01*
X0071800Y0086800D01*
X0076175Y0086800D01*
X0071800Y0086800D01*
X0071800Y0086800D01*
X0071800Y0082425D01*
X0071800Y0086800D01*
X0071800Y0086800D01*
X0071800Y0086800D01*
X0067425Y0086800D01*
X0067425Y0085870D02*
X0065975Y0085870D01*
X0065975Y0084272D02*
X0067425Y0084272D01*
X0068313Y0082673D02*
X0065086Y0082673D01*
X0058514Y0082673D02*
X0055086Y0082673D01*
X0055975Y0084272D02*
X0057625Y0084272D01*
X0057625Y0085870D02*
X0055975Y0085870D01*
X0055975Y0087469D02*
X0057625Y0087469D01*
X0057625Y0089068D02*
X0055975Y0089068D01*
X0055346Y0090666D02*
X0058254Y0090666D01*
X0049700Y0092265D02*
X0016355Y0092265D01*
X0016372Y0092160D02*
X0016259Y0092871D01*
X0016037Y0093555D01*
X0015710Y0094196D01*
X0015287Y0094778D01*
X0014778Y0095287D01*
X0014196Y0095710D01*
X0013555Y0096037D01*
X0012871Y0096259D01*
X0012160Y0096372D01*
X0011886Y0096372D01*
X0011886Y0091886D01*
X0016372Y0091886D01*
X0016372Y0092160D01*
X0016372Y0091714D02*
X0011886Y0091714D01*
X0011886Y0087228D01*
X0012160Y0087228D01*
X0012871Y0087341D01*
X0013555Y0087563D01*
X0014196Y0087890D01*
X0014778Y0088313D01*
X0015287Y0088822D01*
X0015710Y0089404D01*
X0016037Y0090045D01*
X0016259Y0090729D01*
X0016372Y0091440D01*
X0016372Y0091714D01*
X0016238Y0090666D02*
X0038254Y0090666D01*
X0037625Y0089068D02*
X0015466Y0089068D01*
X0013265Y0087469D02*
X0037625Y0087469D01*
X0037625Y0085870D02*
X0013397Y0085870D01*
X0011886Y0087469D02*
X0011714Y0087469D01*
X0011714Y0089068D02*
X0011886Y0089068D01*
X0011886Y0090666D02*
X0011714Y0090666D01*
X0011714Y0092265D02*
X0011886Y0092265D01*
X0011886Y0093863D02*
X0011714Y0093863D01*
X0011714Y0095462D02*
X0011886Y0095462D01*
X0011600Y0097060D02*
X0049700Y0097060D01*
X0049700Y0095462D02*
X0014538Y0095462D01*
X0015880Y0093863D02*
X0049700Y0093863D01*
X0048254Y0090666D02*
X0045346Y0090666D01*
X0045975Y0089068D02*
X0047625Y0089068D01*
X0047625Y0087469D02*
X0045975Y0087469D01*
X0045975Y0085870D02*
X0047625Y0085870D01*
X0047625Y0084272D02*
X0045975Y0084272D01*
X0045086Y0082673D02*
X0048514Y0082673D01*
X0039700Y0081075D02*
X0016172Y0081075D01*
X0016170Y0082673D02*
X0038514Y0082673D01*
X0037625Y0084272D02*
X0015508Y0084272D01*
X0017093Y0079476D02*
X0039700Y0079476D01*
X0040252Y0077878D02*
X0018692Y0077878D01*
X0020290Y0076279D02*
X0104456Y0076279D01*
X0104513Y0074681D02*
X0021889Y0074681D01*
X0023487Y0073082D02*
X0105426Y0073082D01*
X0110674Y0073082D02*
X0113408Y0073082D01*
X0113200Y0074681D02*
X0111587Y0074681D01*
X0111749Y0076279D02*
X0113723Y0076279D01*
X0113348Y0077878D02*
X0116031Y0077878D01*
X0117569Y0077878D02*
X0118310Y0077878D01*
X0117625Y0079476D02*
X0114946Y0079476D01*
X0116545Y0081075D02*
X0117625Y0081075D01*
X0111651Y0085870D02*
X0076175Y0085870D01*
X0076175Y0084272D02*
X0110052Y0084272D01*
X0108454Y0082673D02*
X0075287Y0082673D01*
X0071800Y0082673D02*
X0071800Y0082673D01*
X0071800Y0084272D02*
X0071800Y0084272D01*
X0071800Y0085870D02*
X0071800Y0085870D01*
X0071800Y0087469D02*
X0071800Y0087469D01*
X0071800Y0089068D02*
X0071800Y0089068D01*
X0071800Y0090666D02*
X0071800Y0090666D01*
X0075629Y0090666D02*
X0116446Y0090666D01*
X0114848Y0089068D02*
X0076175Y0089068D01*
X0076175Y0087469D02*
X0113249Y0087469D01*
X0118045Y0092265D02*
X0095234Y0092265D01*
X0096833Y0093863D02*
X0119643Y0093863D01*
X0121242Y0095462D02*
X0098431Y0095462D01*
X0105823Y0097060D02*
X0110046Y0097060D01*
X0109861Y0097120D02*
X0110617Y0096874D01*
X0111403Y0096750D01*
X0111800Y0096750D01*
X0111800Y0101800D01*
X0106750Y0101800D01*
X0106750Y0101403D01*
X0106874Y0100617D01*
X0107120Y0099861D01*
X0107481Y0099153D01*
X0107948Y0098510D01*
X0108510Y0097948D01*
X0109153Y0097481D01*
X0109861Y0097120D01*
X0111800Y0097060D02*
X0111800Y0097060D01*
X0111800Y0098659D02*
X0111800Y0098659D01*
X0111800Y0100257D02*
X0111800Y0100257D01*
X0111800Y0101856D02*
X0111800Y0101856D01*
X0111800Y0103454D02*
X0111800Y0103454D01*
X0111800Y0105053D02*
X0111800Y0105053D01*
X0107921Y0105053D02*
X0106650Y0105053D01*
X0106650Y0103454D02*
X0107028Y0103454D01*
X0106750Y0101856D02*
X0106650Y0101856D01*
X0106650Y0100257D02*
X0106991Y0100257D01*
X0106650Y0098659D02*
X0107840Y0098659D01*
X0113554Y0097060D02*
X0122840Y0097060D01*
X0124439Y0098659D02*
X0115760Y0098659D01*
X0116609Y0100257D02*
X0126037Y0100257D01*
X0127636Y0101856D02*
X0116850Y0101856D01*
X0116572Y0103454D02*
X0129234Y0103454D01*
X0130833Y0105053D02*
X0115679Y0105053D01*
X0127734Y0092265D02*
X0194295Y0092265D01*
X0195893Y0093863D02*
X0129333Y0093863D01*
X0130931Y0095462D02*
X0197492Y0095462D01*
X0197428Y0097060D02*
X0132530Y0097060D01*
X0134128Y0098659D02*
X0197838Y0098659D01*
X0199075Y0100257D02*
X0135727Y0100257D01*
X0137325Y0101856D02*
X0202148Y0101856D01*
X0192696Y0090666D02*
X0126136Y0090666D01*
X0124537Y0089068D02*
X0191098Y0089068D01*
X0189499Y0087469D02*
X0122939Y0087469D01*
X0125142Y0085870D02*
X0128458Y0085870D01*
X0128562Y0085975D02*
X0127625Y0085038D01*
X0127625Y0078562D01*
X0128562Y0077625D01*
X0135038Y0077625D01*
X0135975Y0078562D01*
X0135975Y0085038D01*
X0135038Y0085975D01*
X0128562Y0085975D01*
X0127625Y0084272D02*
X0125975Y0084272D01*
X0125975Y0082673D02*
X0127625Y0082673D01*
X0127625Y0081075D02*
X0125975Y0081075D01*
X0125975Y0079476D02*
X0127625Y0079476D01*
X0128310Y0077878D02*
X0125290Y0077878D01*
X0119075Y0071484D02*
X0197428Y0071484D01*
X0197599Y0073082D02*
X0196052Y0073082D01*
X0197651Y0074681D02*
X0198498Y0074681D01*
X0199249Y0076279D02*
X0202122Y0076279D01*
X0197861Y0069885D02*
X0154631Y0069885D01*
X0153769Y0070243D02*
X0157407Y0068735D01*
X0160192Y0065951D01*
X0161699Y0062312D01*
X0161699Y0058374D01*
X0160192Y0054736D01*
X0157407Y0051951D01*
X0153769Y0050444D01*
X0149831Y0050444D01*
X0146193Y0051951D01*
X0143408Y0054736D01*
X0141901Y0058374D01*
X0141901Y0062312D01*
X0143408Y0065951D01*
X0146193Y0068735D01*
X0149831Y0070243D01*
X0153769Y0070243D01*
X0157856Y0068287D02*
X0199131Y0068287D01*
X0202112Y0066688D02*
X0159455Y0066688D01*
X0160549Y0065090D02*
X0198907Y0065090D01*
X0197769Y0063491D02*
X0161211Y0063491D01*
X0161699Y0061893D02*
X0197428Y0061893D01*
X0197692Y0060294D02*
X0161699Y0060294D01*
X0161699Y0058696D02*
X0198722Y0058696D01*
X0202103Y0057097D02*
X0175256Y0057097D01*
X0175859Y0056847D02*
X0172510Y0058235D01*
X0168885Y0058235D01*
X0165536Y0056847D01*
X0162973Y0054284D01*
X0161586Y0050935D01*
X0161586Y0047310D01*
X0162973Y0043961D01*
X0163232Y0043702D01*
X0159789Y0040259D01*
X0159525Y0040898D01*
X0156961Y0043462D01*
X0153612Y0044849D01*
X0149988Y0044849D01*
X0146639Y0043462D01*
X0144075Y0040898D01*
X0143248Y0038900D01*
X0132670Y0038900D01*
X0110975Y0060595D01*
X0110975Y0065038D01*
X0110038Y0065975D01*
X0103562Y0065975D01*
X0102625Y0065038D01*
X0102625Y0058562D01*
X0103562Y0057625D01*
X0108005Y0057625D01*
X0109655Y0055975D01*
X0103562Y0055975D01*
X0102625Y0055038D01*
X0102625Y0048562D01*
X0103562Y0047625D01*
X0110038Y0047625D01*
X0110975Y0048562D01*
X0110975Y0054655D01*
X0129700Y0035930D01*
X0130930Y0034700D01*
X0142688Y0034700D01*
X0142688Y0033925D01*
X0144075Y0030576D01*
X0146639Y0028012D01*
X0149988Y0026625D01*
X0153612Y0026625D01*
X0156961Y0028012D01*
X0159525Y0030576D01*
X0160912Y0033925D01*
X0160912Y0035442D01*
X0161400Y0035930D01*
X0166478Y0041008D01*
X0168885Y0040011D01*
X0172510Y0040011D01*
X0175859Y0041398D01*
X0178422Y0043961D01*
X0179809Y0047310D01*
X0179809Y0050935D01*
X0178422Y0054284D01*
X0175859Y0056847D01*
X0177208Y0055499D02*
X0199316Y0055499D01*
X0197938Y0053900D02*
X0178581Y0053900D01*
X0179243Y0052302D02*
X0197428Y0052302D01*
X0197522Y0050703D02*
X0179809Y0050703D01*
X0179809Y0049105D02*
X0184014Y0049105D01*
X0183200Y0047506D02*
X0179809Y0047506D01*
X0179228Y0045908D02*
X0183273Y0045908D01*
X0184200Y0044309D02*
X0178566Y0044309D01*
X0177172Y0042711D02*
X0187919Y0042711D01*
X0189518Y0041112D02*
X0175168Y0041112D01*
X0164983Y0039514D02*
X0191116Y0039514D01*
X0192715Y0037915D02*
X0163385Y0037915D01*
X0161786Y0036317D02*
X0194314Y0036317D01*
X0195912Y0034718D02*
X0160912Y0034718D01*
X0160578Y0033120D02*
X0197511Y0033120D01*
X0197428Y0031521D02*
X0159916Y0031521D01*
X0158872Y0029923D02*
X0197846Y0029923D01*
X0199093Y0028324D02*
X0157273Y0028324D01*
X0153855Y0026726D02*
X0202071Y0026726D01*
X0198945Y0025127D02*
X0110885Y0025127D01*
X0110975Y0025038D02*
X0110038Y0025975D01*
X0103562Y0025975D01*
X0102625Y0025038D01*
X0102625Y0018562D01*
X0103562Y0017625D01*
X0110038Y0017625D01*
X0110975Y0018562D01*
X0110975Y0025038D01*
X0110975Y0023529D02*
X0197784Y0023529D01*
X0197428Y0021930D02*
X0110975Y0021930D01*
X0110975Y0020332D02*
X0197676Y0020332D01*
X0198685Y0018733D02*
X0110975Y0018733D01*
X0110476Y0015536D02*
X0199396Y0015536D01*
X0197954Y0013937D02*
X0110975Y0013937D01*
X0110975Y0012339D02*
X0197428Y0012339D01*
X0202062Y0017134D02*
X0011600Y0017134D01*
X0014204Y0015536D02*
X0103124Y0015536D01*
X0102625Y0013937D02*
X0015646Y0013937D01*
X0016172Y0012339D02*
X0102625Y0012339D01*
X0102625Y0018733D02*
X0014915Y0018733D01*
X0015924Y0020332D02*
X0102625Y0020332D01*
X0102625Y0021930D02*
X0016172Y0021930D01*
X0015816Y0023529D02*
X0102625Y0023529D01*
X0102715Y0025127D02*
X0014655Y0025127D01*
X0011600Y0026726D02*
X0059435Y0026726D01*
X0059218Y0026775D02*
X0060238Y0026542D01*
X0061000Y0026456D01*
X0061000Y0034937D01*
X0062600Y0034937D01*
X0062600Y0036537D01*
X0071081Y0036537D01*
X0070995Y0037299D01*
X0070762Y0038319D01*
X0070417Y0039306D01*
X0069963Y0040248D01*
X0069406Y0041134D01*
X0068754Y0041952D01*
X0068015Y0042691D01*
X0067197Y0043343D01*
X0066311Y0043900D01*
X0065369Y0044354D01*
X0064382Y0044699D01*
X0063362Y0044932D01*
X0062600Y0045018D01*
X0062600Y0036537D01*
X0061000Y0036537D01*
X0061000Y0034937D01*
X0052519Y0034937D01*
X0052605Y0034175D01*
X0052838Y0033155D01*
X0053183Y0032168D01*
X0053637Y0031226D01*
X0054194Y0030340D01*
X0054846Y0029522D01*
X0055585Y0028783D01*
X0056403Y0028131D01*
X0057289Y0027574D01*
X0058231Y0027120D01*
X0059218Y0026775D01*
X0061000Y0026726D02*
X0062600Y0026726D01*
X0062600Y0026456D02*
X0063362Y0026542D01*
X0064382Y0026775D01*
X0065369Y0027120D01*
X0066311Y0027574D01*
X0067197Y0028131D01*
X0068015Y0028783D01*
X0068754Y0029522D01*
X0069406Y0030340D01*
X0069963Y0031226D01*
X0070417Y0032168D01*
X0070762Y0033155D01*
X0070995Y0034175D01*
X0071081Y0034937D01*
X0062600Y0034937D01*
X0062600Y0026456D01*
X0064165Y0026726D02*
X0149745Y0026726D01*
X0146327Y0028324D02*
X0110736Y0028324D01*
X0110975Y0029923D02*
X0144728Y0029923D01*
X0143684Y0031521D02*
X0110975Y0031521D01*
X0110975Y0033120D02*
X0143022Y0033120D01*
X0143502Y0039514D02*
X0132056Y0039514D01*
X0130458Y0041112D02*
X0144289Y0041112D01*
X0145888Y0042711D02*
X0128859Y0042711D01*
X0127261Y0044309D02*
X0148685Y0044309D01*
X0154915Y0044309D02*
X0162829Y0044309D01*
X0162241Y0042711D02*
X0157712Y0042711D01*
X0159311Y0041112D02*
X0160642Y0041112D01*
X0162167Y0045908D02*
X0125662Y0045908D01*
X0124064Y0047506D02*
X0161586Y0047506D01*
X0161586Y0049105D02*
X0122465Y0049105D01*
X0120867Y0050703D02*
X0149205Y0050703D01*
X0145842Y0052302D02*
X0119268Y0052302D01*
X0117670Y0053900D02*
X0144243Y0053900D01*
X0143092Y0055499D02*
X0116071Y0055499D01*
X0114473Y0057097D02*
X0142430Y0057097D01*
X0141901Y0058696D02*
X0112874Y0058696D01*
X0111276Y0060294D02*
X0141901Y0060294D01*
X0141901Y0061893D02*
X0110975Y0061893D01*
X0110975Y0063491D02*
X0142389Y0063491D01*
X0143051Y0065090D02*
X0110922Y0065090D01*
X0114525Y0071484D02*
X0025086Y0071484D01*
X0026684Y0069885D02*
X0058969Y0069885D01*
X0055744Y0068287D02*
X0028283Y0068287D01*
X0029881Y0066688D02*
X0054145Y0066688D01*
X0053051Y0065090D02*
X0031480Y0065090D01*
X0028737Y0061893D02*
X0016172Y0061893D01*
X0015908Y0060294D02*
X0030336Y0060294D01*
X0027139Y0063491D02*
X0015831Y0063491D01*
X0014693Y0065090D02*
X0025540Y0065090D01*
X0023942Y0066688D02*
X0011600Y0066688D01*
X0011600Y0068287D02*
X0022343Y0068287D01*
X0020745Y0069885D02*
X0011600Y0069885D01*
X0011600Y0071484D02*
X0019146Y0071484D01*
X0017548Y0073082D02*
X0011600Y0073082D01*
X0011600Y0074681D02*
X0015949Y0074681D01*
X0014351Y0076279D02*
X0011600Y0076279D01*
X0014878Y0058696D02*
X0051901Y0058696D01*
X0052430Y0057097D02*
X0047713Y0057097D01*
X0047414Y0057286D02*
X0046471Y0057739D01*
X0045484Y0058085D01*
X0044465Y0058318D01*
X0043702Y0058403D01*
X0043702Y0049923D01*
X0042102Y0049923D01*
X0042102Y0048323D01*
X0033622Y0048323D01*
X0033708Y0047561D01*
X0033940Y0046541D01*
X0034286Y0045554D01*
X0034740Y0044611D01*
X0035296Y0043726D01*
X0035948Y0042908D01*
X0036688Y0042169D01*
X0037505Y0041517D01*
X0038391Y0040960D01*
X0039333Y0040506D01*
X0040320Y0040161D01*
X0041340Y0039928D01*
X0042102Y0039842D01*
X0042102Y0048323D01*
X0043702Y0048323D01*
X0043702Y0039842D01*
X0044465Y0039928D01*
X0045484Y0040161D01*
X0046471Y0040506D01*
X0047414Y0040960D01*
X0048299Y0041517D01*
X0049117Y0042169D01*
X0049857Y0042908D01*
X0050509Y0043726D01*
X0051065Y0044611D01*
X0051519Y0045554D01*
X0051864Y0046541D01*
X0052097Y0047561D01*
X0052183Y0048323D01*
X0043702Y0048323D01*
X0043702Y0049923D01*
X0052183Y0049923D01*
X0052097Y0050685D01*
X0051864Y0051705D01*
X0051519Y0052692D01*
X0051065Y0053634D01*
X0050509Y0054520D01*
X0049857Y0055337D01*
X0049117Y0056077D01*
X0048299Y0056729D01*
X0047414Y0057286D01*
X0049695Y0055499D02*
X0053092Y0055499D01*
X0054243Y0053900D02*
X0050898Y0053900D01*
X0051655Y0052302D02*
X0055842Y0052302D01*
X0059205Y0050703D02*
X0052093Y0050703D01*
X0052085Y0047506D02*
X0086874Y0047506D01*
X0088472Y0045908D02*
X0051643Y0045908D01*
X0050875Y0044309D02*
X0058139Y0044309D01*
X0058231Y0044354D02*
X0057289Y0043900D01*
X0056403Y0043343D01*
X0055585Y0042691D01*
X0054846Y0041952D01*
X0054194Y0041134D01*
X0053637Y0040248D01*
X0053183Y0039306D01*
X0052838Y0038319D01*
X0052605Y0037299D01*
X0052519Y0036537D01*
X0061000Y0036537D01*
X0061000Y0045018D01*
X0060238Y0044932D01*
X0059218Y0044699D01*
X0058231Y0044354D01*
X0061000Y0044309D02*
X0062600Y0044309D01*
X0062600Y0042711D02*
X0061000Y0042711D01*
X0061000Y0041112D02*
X0062600Y0041112D01*
X0062600Y0039514D02*
X0061000Y0039514D01*
X0061000Y0037915D02*
X0062600Y0037915D01*
X0062600Y0036317D02*
X0098064Y0036317D01*
X0099662Y0034718D02*
X0071056Y0034718D01*
X0070750Y0033120D02*
X0101261Y0033120D01*
X0102625Y0031521D02*
X0070105Y0031521D01*
X0069073Y0029923D02*
X0102625Y0029923D01*
X0102864Y0028324D02*
X0067439Y0028324D01*
X0062600Y0028324D02*
X0061000Y0028324D01*
X0061000Y0029923D02*
X0062600Y0029923D01*
X0062600Y0031521D02*
X0061000Y0031521D01*
X0061000Y0033120D02*
X0062600Y0033120D01*
X0062600Y0034718D02*
X0061000Y0034718D01*
X0061000Y0036317D02*
X0011600Y0036317D01*
X0013845Y0037915D02*
X0052746Y0037915D01*
X0053283Y0039514D02*
X0015585Y0039514D01*
X0016172Y0041112D02*
X0038149Y0041112D01*
X0036146Y0042711D02*
X0016155Y0042711D01*
X0015473Y0044309D02*
X0034930Y0044309D01*
X0034162Y0045908D02*
X0013307Y0045908D01*
X0012858Y0047506D02*
X0033720Y0047506D01*
X0033622Y0049923D02*
X0042102Y0049923D01*
X0042102Y0058403D01*
X0041340Y0058318D01*
X0040320Y0058085D01*
X0039333Y0057739D01*
X0038391Y0057286D01*
X0037505Y0056729D01*
X0036688Y0056077D01*
X0035948Y0055337D01*
X0035296Y0054520D01*
X0034740Y0053634D01*
X0034286Y0052692D01*
X0033940Y0051705D01*
X0033708Y0050685D01*
X0033622Y0049923D01*
X0033712Y0050703D02*
X0016078Y0050703D01*
X0016172Y0052302D02*
X0034149Y0052302D01*
X0034907Y0053900D02*
X0015662Y0053900D01*
X0014284Y0055499D02*
X0036109Y0055499D01*
X0038091Y0057097D02*
X0011600Y0057097D01*
X0015287Y0049105D02*
X0042102Y0049105D01*
X0042102Y0050703D02*
X0043702Y0050703D01*
X0043702Y0049105D02*
X0085275Y0049105D01*
X0083677Y0050703D02*
X0064395Y0050703D01*
X0067758Y0052302D02*
X0082078Y0052302D01*
X0080480Y0053900D02*
X0069357Y0053900D01*
X0070508Y0055499D02*
X0078881Y0055499D01*
X0077283Y0057097D02*
X0071170Y0057097D01*
X0071699Y0061893D02*
X0102625Y0061893D01*
X0102625Y0063491D02*
X0071211Y0063491D01*
X0070549Y0065090D02*
X0102677Y0065090D01*
X0102625Y0060294D02*
X0080026Y0060294D01*
X0080150Y0060170D02*
X0080150Y0060170D01*
X0081624Y0058696D02*
X0102625Y0058696D01*
X0103086Y0055499D02*
X0084821Y0055499D01*
X0083223Y0057097D02*
X0108533Y0057097D01*
X0110975Y0053900D02*
X0111730Y0053900D01*
X0110975Y0052302D02*
X0113328Y0052302D01*
X0114927Y0050703D02*
X0110975Y0050703D01*
X0110975Y0049105D02*
X0116525Y0049105D01*
X0118124Y0047506D02*
X0092814Y0047506D01*
X0094412Y0045908D02*
X0103280Y0045908D01*
X0103120Y0045815D02*
X0102785Y0045480D01*
X0102548Y0045070D01*
X0102425Y0044612D01*
X0102425Y0041800D01*
X0106800Y0041800D01*
X0106800Y0041800D01*
X0106800Y0046175D01*
X0109612Y0046175D01*
X0110070Y0046052D01*
X0110480Y0045815D01*
X0110815Y0045480D01*
X0111052Y0045070D01*
X0111175Y0044612D01*
X0111175Y0041800D01*
X0106800Y0041800D01*
X0106800Y0041800D01*
X0111175Y0041800D01*
X0111175Y0038988D01*
X0111052Y0038530D01*
X0110815Y0038120D01*
X0110480Y0037785D01*
X0110070Y0037548D01*
X0109612Y0037425D01*
X0106800Y0037425D01*
X0106800Y0041800D01*
X0106800Y0041800D01*
X0106800Y0041800D01*
X0106800Y0046175D01*
X0103988Y0046175D01*
X0103530Y0046052D01*
X0103120Y0045815D01*
X0102425Y0044309D02*
X0096011Y0044309D01*
X0097609Y0042711D02*
X0102425Y0042711D01*
X0102425Y0041800D02*
X0102425Y0038988D01*
X0102548Y0038530D01*
X0102785Y0038120D01*
X0103120Y0037785D01*
X0103530Y0037548D01*
X0103988Y0037425D01*
X0106800Y0037425D01*
X0106800Y0041800D01*
X0102425Y0041800D01*
X0102425Y0041112D02*
X0099208Y0041112D01*
X0100806Y0039514D02*
X0102425Y0039514D01*
X0102405Y0037915D02*
X0102990Y0037915D01*
X0105253Y0036317D02*
X0129314Y0036317D01*
X0130912Y0034718D02*
X0110975Y0034718D01*
X0110610Y0037915D02*
X0127715Y0037915D01*
X0126116Y0039514D02*
X0111175Y0039514D01*
X0111175Y0041112D02*
X0124518Y0041112D01*
X0122919Y0042711D02*
X0111175Y0042711D01*
X0111175Y0044309D02*
X0121321Y0044309D01*
X0119722Y0045908D02*
X0110320Y0045908D01*
X0106800Y0045908D02*
X0106800Y0045908D01*
X0106800Y0044309D02*
X0106800Y0044309D01*
X0106800Y0042711D02*
X0106800Y0042711D01*
X0106800Y0041112D02*
X0106800Y0041112D01*
X0106800Y0039514D02*
X0106800Y0039514D01*
X0106800Y0037915D02*
X0106800Y0037915D01*
X0096465Y0037915D02*
X0070854Y0037915D01*
X0070317Y0039514D02*
X0094866Y0039514D01*
X0093268Y0041112D02*
X0069420Y0041112D01*
X0067990Y0042711D02*
X0091669Y0042711D01*
X0090071Y0044309D02*
X0065461Y0044309D01*
X0055610Y0042711D02*
X0049659Y0042711D01*
X0047656Y0041112D02*
X0054180Y0041112D01*
X0052544Y0034718D02*
X0015064Y0034718D01*
X0015985Y0033120D02*
X0052850Y0033120D01*
X0053495Y0031521D02*
X0016172Y0031521D01*
X0015754Y0029923D02*
X0054527Y0029923D01*
X0056161Y0028324D02*
X0014507Y0028324D01*
X0042102Y0041112D02*
X0043702Y0041112D01*
X0043702Y0042711D02*
X0042102Y0042711D01*
X0042102Y0044309D02*
X0043702Y0044309D01*
X0043702Y0045908D02*
X0042102Y0045908D01*
X0042102Y0047506D02*
X0043702Y0047506D01*
X0043702Y0052302D02*
X0042102Y0052302D01*
X0042102Y0053900D02*
X0043702Y0053900D01*
X0043702Y0055499D02*
X0042102Y0055499D01*
X0042102Y0057097D02*
X0043702Y0057097D01*
X0064631Y0069885D02*
X0148969Y0069885D01*
X0145744Y0068287D02*
X0067856Y0068287D01*
X0069455Y0066688D02*
X0144145Y0066688D01*
X0145038Y0077625D02*
X0138562Y0077625D01*
X0137625Y0078562D01*
X0137625Y0085038D01*
X0138562Y0085975D01*
X0145038Y0085975D01*
X0145975Y0085038D01*
X0145975Y0078562D01*
X0145038Y0077625D01*
X0145290Y0077878D02*
X0148310Y0077878D01*
X0148562Y0077625D02*
X0155038Y0077625D01*
X0155975Y0078562D01*
X0155975Y0085038D01*
X0155038Y0085975D01*
X0148562Y0085975D01*
X0147625Y0085038D01*
X0147625Y0078562D01*
X0148562Y0077625D01*
X0147625Y0079476D02*
X0145975Y0079476D01*
X0145975Y0081075D02*
X0147625Y0081075D01*
X0147625Y0082673D02*
X0145975Y0082673D01*
X0145975Y0084272D02*
X0147625Y0084272D01*
X0148458Y0085870D02*
X0145142Y0085870D01*
X0138458Y0085870D02*
X0135142Y0085870D01*
X0135975Y0084272D02*
X0137625Y0084272D01*
X0137625Y0082673D02*
X0135975Y0082673D01*
X0135975Y0081075D02*
X0137625Y0081075D01*
X0137625Y0079476D02*
X0135975Y0079476D01*
X0135290Y0077878D02*
X0138310Y0077878D01*
X0155290Y0077878D02*
X0179450Y0077878D01*
X0179744Y0079476D02*
X0155975Y0079476D01*
X0155975Y0081075D02*
X0180984Y0081075D01*
X0184704Y0082673D02*
X0155975Y0082673D01*
X0155975Y0084272D02*
X0186302Y0084272D01*
X0187901Y0085870D02*
X0155142Y0085870D01*
X0161170Y0057097D02*
X0166139Y0057097D01*
X0164188Y0055499D02*
X0160508Y0055499D01*
X0159357Y0053900D02*
X0162814Y0053900D01*
X0162152Y0052302D02*
X0157758Y0052302D01*
X0154395Y0050703D02*
X0161586Y0050703D01*
X0189586Y0049105D02*
X0198313Y0049105D01*
X0200742Y0047506D02*
X0190400Y0047506D01*
X0190662Y0045908D02*
X0200293Y0045908D01*
X0198127Y0044309D02*
X0192261Y0044309D01*
X0193859Y0042711D02*
X0197445Y0042711D01*
X0197428Y0041112D02*
X0195458Y0041112D01*
X0197056Y0039514D02*
X0198015Y0039514D01*
X0198655Y0037915D02*
X0199755Y0037915D01*
X0200253Y0036317D02*
X0202081Y0036317D01*
X0138551Y0122636D02*
X0135049Y0122636D01*
X0135038Y0122625D02*
X0135975Y0123562D01*
X0135975Y0130038D01*
X0135038Y0130975D01*
X0128562Y0130975D01*
X0127625Y0130038D01*
X0127625Y0123562D01*
X0128562Y0122625D01*
X0135038Y0122625D01*
X0135975Y0124235D02*
X0137625Y0124235D01*
X0137625Y0125833D02*
X0135975Y0125833D01*
X0135975Y0127432D02*
X0137625Y0127432D01*
X0137625Y0129030D02*
X0135975Y0129030D01*
X0135384Y0130629D02*
X0138216Y0130629D01*
X0128216Y0130629D02*
X0125384Y0130629D01*
X0125038Y0130975D02*
X0125975Y0130038D01*
X0125975Y0123562D01*
X0125038Y0122625D01*
X0118562Y0122625D01*
X0117625Y0123562D01*
X0117625Y0130038D01*
X0118562Y0130975D01*
X0125038Y0130975D01*
X0125975Y0129030D02*
X0127625Y0129030D01*
X0127625Y0127432D02*
X0125975Y0127432D01*
X0125975Y0125833D02*
X0127625Y0125833D01*
X0127625Y0124235D02*
X0125975Y0124235D01*
X0125049Y0122636D02*
X0128551Y0122636D01*
X0118551Y0122636D02*
X0115223Y0122636D01*
X0115070Y0122548D02*
X0115480Y0122785D01*
X0115815Y0123120D01*
X0116052Y0123530D01*
X0116175Y0123988D01*
X0116175Y0126800D01*
X0116175Y0129612D01*
X0116052Y0130070D01*
X0115815Y0130480D01*
X0115480Y0130815D01*
X0115070Y0131052D01*
X0114612Y0131175D01*
X0111800Y0131175D01*
X0108988Y0131175D01*
X0108530Y0131052D01*
X0108120Y0130815D01*
X0107785Y0130480D01*
X0107548Y0130070D01*
X0107425Y0129612D01*
X0107425Y0126800D01*
X0111800Y0126800D01*
X0111800Y0126800D01*
X0111800Y0131175D01*
X0111800Y0126800D01*
X0116175Y0126800D01*
X0111800Y0126800D01*
X0111800Y0126800D01*
X0111800Y0122425D01*
X0114612Y0122425D01*
X0115070Y0122548D01*
X0116175Y0124235D02*
X0117625Y0124235D01*
X0117625Y0125833D02*
X0116175Y0125833D01*
X0116175Y0127432D02*
X0117625Y0127432D01*
X0117625Y0129030D02*
X0116175Y0129030D01*
X0115666Y0130629D02*
X0118216Y0130629D01*
X0111800Y0130629D02*
X0111800Y0130629D01*
X0111800Y0129030D02*
X0111800Y0129030D01*
X0111800Y0127432D02*
X0111800Y0127432D01*
X0111800Y0126800D02*
X0111800Y0126800D01*
X0111800Y0126800D01*
X0111800Y0122425D01*
X0108988Y0122425D01*
X0108530Y0122548D01*
X0108120Y0122785D01*
X0107785Y0123120D01*
X0107548Y0123530D01*
X0107425Y0123988D01*
X0107425Y0126800D01*
X0111800Y0126800D01*
X0111800Y0125833D02*
X0111800Y0125833D01*
X0111800Y0124235D02*
X0111800Y0124235D01*
X0111800Y0122636D02*
X0111800Y0122636D01*
X0108377Y0122636D02*
X0105049Y0122636D01*
X0105038Y0122625D02*
X0105975Y0123562D01*
X0105975Y0130038D01*
X0105038Y0130975D01*
X0098562Y0130975D01*
X0097625Y0130038D01*
X0097625Y0123562D01*
X0098562Y0122625D01*
X0105038Y0122625D01*
X0105568Y0121038D02*
X0075975Y0121038D01*
X0075975Y0122636D02*
X0098551Y0122636D01*
X0097625Y0124235D02*
X0075975Y0124235D01*
X0075975Y0125038D02*
X0075038Y0125975D01*
X0068562Y0125975D01*
X0067625Y0125038D01*
X0067625Y0118562D01*
X0068562Y0117625D01*
X0075038Y0117625D01*
X0075975Y0118562D01*
X0075975Y0125038D01*
X0075179Y0125833D02*
X0097625Y0125833D01*
X0097625Y0127432D02*
X0012678Y0127432D01*
X0013486Y0125833D02*
X0048151Y0125833D01*
X0048120Y0125815D02*
X0047785Y0125480D01*
X0047548Y0125070D01*
X0047425Y0124612D01*
X0047425Y0121800D01*
X0051800Y0121800D01*
X0051800Y0121800D01*
X0051800Y0126175D01*
X0048988Y0126175D01*
X0048530Y0126052D01*
X0048120Y0125815D01*
X0047425Y0124235D02*
X0015523Y0124235D01*
X0016172Y0122636D02*
X0047425Y0122636D01*
X0047425Y0121800D02*
X0047425Y0118988D01*
X0047548Y0118530D01*
X0047785Y0118120D01*
X0048120Y0117785D01*
X0048530Y0117548D01*
X0048988Y0117425D01*
X0051800Y0117425D01*
X0054612Y0117425D01*
X0055070Y0117548D01*
X0055480Y0117785D01*
X0055815Y0118120D01*
X0056052Y0118530D01*
X0056175Y0118988D01*
X0056175Y0121800D01*
X0056175Y0124612D01*
X0056052Y0125070D01*
X0055815Y0125480D01*
X0055480Y0125815D01*
X0055070Y0126052D01*
X0054612Y0126175D01*
X0051800Y0126175D01*
X0051800Y0121800D01*
X0056175Y0121800D01*
X0051800Y0121800D01*
X0051800Y0121800D01*
X0051800Y0117425D01*
X0051800Y0121800D01*
X0051800Y0121800D01*
X0051800Y0121800D01*
X0047425Y0121800D01*
X0047425Y0121038D02*
X0016172Y0121038D01*
X0015554Y0119439D02*
X0047425Y0119439D01*
X0048064Y0117841D02*
X0013665Y0117841D01*
X0011600Y0116242D02*
X0059700Y0116242D01*
X0059700Y0114644D02*
X0015139Y0114644D01*
X0016016Y0113045D02*
X0059700Y0113045D01*
X0059700Y0111447D02*
X0016172Y0111447D01*
X0015723Y0109848D02*
X0059700Y0109848D01*
X0058337Y0108250D02*
X0055546Y0108250D01*
X0055480Y0108315D02*
X0055815Y0107980D01*
X0056052Y0107570D01*
X0056175Y0107112D01*
X0056175Y0104300D01*
X0051800Y0104300D01*
X0051800Y0104300D01*
X0051800Y0108675D01*
X0048988Y0108675D01*
X0048530Y0108552D01*
X0048120Y0108315D01*
X0047785Y0107980D01*
X0047548Y0107570D01*
X0047425Y0107112D01*
X0047425Y0104300D01*
X0051800Y0104300D01*
X0051800Y0104300D01*
X0051800Y0099925D01*
X0054612Y0099925D01*
X0055070Y0100048D01*
X0055480Y0100285D01*
X0055815Y0100620D01*
X0056052Y0101030D01*
X0056175Y0101488D01*
X0056175Y0104300D01*
X0051800Y0104300D01*
X0051800Y0104300D01*
X0051800Y0104300D01*
X0051800Y0108675D01*
X0054612Y0108675D01*
X0055070Y0108552D01*
X0055480Y0108315D01*
X0056175Y0106651D02*
X0057625Y0106651D01*
X0057625Y0105053D02*
X0056175Y0105053D01*
X0056175Y0103454D02*
X0057625Y0103454D01*
X0057625Y0101856D02*
X0056175Y0101856D01*
X0055432Y0100257D02*
X0058431Y0100257D01*
X0051800Y0100257D02*
X0051800Y0100257D01*
X0051800Y0099925D02*
X0051800Y0104300D01*
X0047425Y0104300D01*
X0047425Y0101488D01*
X0047548Y0101030D01*
X0047785Y0100620D01*
X0048120Y0100285D01*
X0048530Y0100048D01*
X0048988Y0099925D01*
X0051800Y0099925D01*
X0050689Y0098659D02*
X0015124Y0098659D01*
X0015287Y0098822D02*
X0015710Y0099404D01*
X0016037Y0100045D01*
X0016259Y0100729D01*
X0016372Y0101440D01*
X0016372Y0101714D01*
X0011886Y0101714D01*
X0011886Y0097228D01*
X0012160Y0097228D01*
X0012871Y0097341D01*
X0013555Y0097563D01*
X0014196Y0097890D01*
X0014778Y0098313D01*
X0015287Y0098822D01*
X0016106Y0100257D02*
X0048168Y0100257D01*
X0047425Y0101856D02*
X0011886Y0101856D01*
X0011886Y0101886D02*
X0016372Y0101886D01*
X0016372Y0102160D01*
X0016259Y0102871D01*
X0016037Y0103555D01*
X0015710Y0104196D01*
X0015287Y0104778D01*
X0014778Y0105287D01*
X0014196Y0105710D01*
X0013555Y0106037D01*
X0012871Y0106259D01*
X0012160Y0106372D01*
X0011886Y0106372D01*
X0011886Y0101886D01*
X0011886Y0103454D02*
X0011714Y0103454D01*
X0011714Y0105053D02*
X0011886Y0105053D01*
X0011600Y0106651D02*
X0047425Y0106651D01*
X0047425Y0105053D02*
X0015013Y0105053D01*
X0016069Y0103454D02*
X0047425Y0103454D01*
X0051800Y0103454D02*
X0051800Y0103454D01*
X0051800Y0101856D02*
X0051800Y0101856D01*
X0051800Y0105053D02*
X0051800Y0105053D01*
X0051800Y0106651D02*
X0051800Y0106651D01*
X0051800Y0108250D02*
X0051800Y0108250D01*
X0048054Y0108250D02*
X0014432Y0108250D01*
X0011886Y0100257D02*
X0011714Y0100257D01*
X0011714Y0098659D02*
X0011886Y0098659D01*
X0015213Y0129030D02*
X0097625Y0129030D01*
X0098216Y0130629D02*
X0016047Y0130629D01*
X0014804Y0138621D02*
X0036439Y0138621D01*
X0035308Y0140220D02*
X0015877Y0140220D01*
X0016172Y0141818D02*
X0035000Y0141818D01*
X0035324Y0143417D02*
X0015862Y0143417D01*
X0014767Y0145015D02*
X0036476Y0145015D01*
X0036886Y0148212D02*
X0014395Y0148212D01*
X0015708Y0149811D02*
X0035478Y0149811D01*
X0035000Y0151409D02*
X0016172Y0151409D01*
X0016031Y0153008D02*
X0035154Y0153008D01*
X0036067Y0154606D02*
X0015176Y0154606D01*
X0011600Y0156205D02*
X0039700Y0156205D01*
X0037873Y0157803D02*
X0011600Y0157803D01*
X0011600Y0159402D02*
X0035658Y0159402D01*
X0035000Y0161001D02*
X0011600Y0161001D01*
X0011600Y0162599D02*
X0035000Y0162599D01*
X0035658Y0164198D02*
X0011600Y0164198D01*
X0011600Y0165796D02*
X0037872Y0165796D01*
X0045728Y0165796D02*
X0067872Y0165796D01*
X0065658Y0164198D02*
X0047942Y0164198D01*
X0048600Y0162599D02*
X0065000Y0162599D01*
X0065000Y0161001D02*
X0048600Y0161001D01*
X0047942Y0159402D02*
X0065658Y0159402D01*
X0077533Y0154606D02*
X0169700Y0154606D01*
X0169700Y0153008D02*
X0078446Y0153008D01*
X0078600Y0151409D02*
X0169700Y0151409D01*
X0169700Y0149811D02*
X0078122Y0149811D01*
X0076714Y0148212D02*
X0169700Y0148212D01*
X0169700Y0146614D02*
X0043900Y0146614D01*
X0039700Y0146614D02*
X0011600Y0146614D01*
X0011600Y0183380D02*
X0199038Y0183380D01*
X0197823Y0184978D02*
X0011600Y0184978D01*
X0011600Y0186577D02*
X0197428Y0186577D01*
X0201714Y0161001D02*
X0201886Y0161001D01*
X0201886Y0159402D02*
X0201714Y0159402D01*
X0201714Y0157803D02*
X0201886Y0157803D01*
X0201886Y0156205D02*
X0201714Y0156205D01*
X0201714Y0154606D02*
X0201886Y0154606D01*
X0201886Y0153008D02*
X0201714Y0153008D01*
X0202199Y0151409D02*
X0173900Y0151409D01*
X0169700Y0145015D02*
X0077124Y0145015D01*
X0078276Y0143417D02*
X0169700Y0143417D01*
X0169700Y0141818D02*
X0078600Y0141818D01*
X0078292Y0140220D02*
X0169700Y0140220D01*
X0107934Y0130629D02*
X0105384Y0130629D01*
X0105975Y0129030D02*
X0107425Y0129030D01*
X0107425Y0127432D02*
X0105975Y0127432D01*
X0105975Y0125833D02*
X0107425Y0125833D01*
X0107425Y0124235D02*
X0105975Y0124235D01*
X0103969Y0119439D02*
X0075975Y0119439D01*
X0075253Y0117841D02*
X0102371Y0117841D01*
X0100772Y0116242D02*
X0063900Y0116242D01*
X0063900Y0114644D02*
X0099174Y0114644D01*
X0097575Y0113045D02*
X0063900Y0113045D01*
X0063900Y0111447D02*
X0095977Y0111447D01*
X0068421Y0125833D02*
X0065179Y0125833D01*
X0065975Y0124235D02*
X0067625Y0124235D01*
X0067625Y0122636D02*
X0065975Y0122636D01*
X0065975Y0121038D02*
X0067625Y0121038D01*
X0067625Y0119439D02*
X0065975Y0119439D01*
X0065253Y0117841D02*
X0068347Y0117841D01*
X0058347Y0117841D02*
X0055536Y0117841D01*
X0056175Y0119439D02*
X0057625Y0119439D01*
X0057625Y0121038D02*
X0056175Y0121038D01*
X0056175Y0122636D02*
X0057625Y0122636D01*
X0057625Y0124235D02*
X0056175Y0124235D01*
X0055449Y0125833D02*
X0058421Y0125833D01*
X0051800Y0125833D02*
X0051800Y0125833D01*
X0051800Y0124235D02*
X0051800Y0124235D01*
X0051800Y0122636D02*
X0051800Y0122636D01*
X0051800Y0121038D02*
X0051800Y0121038D01*
X0051800Y0119439D02*
X0051800Y0119439D01*
X0051800Y0117841D02*
X0051800Y0117841D01*
X0086420Y0053900D02*
X0102625Y0053900D01*
X0102625Y0052302D02*
X0088018Y0052302D01*
X0089617Y0050703D02*
X0102625Y0050703D01*
X0102625Y0049105D02*
X0091215Y0049105D01*
D20*
X0086800Y0066800D03*
X0026800Y0031800D03*
X0126800Y0151800D03*
D21*
X0183050Y0126800D03*
X0183050Y0078050D03*
X0186800Y0046800D03*
X0116800Y0074300D03*
X0108050Y0075550D03*
M02*
