G75*
%MOIN*%
%OFA0B0*%
%FSLAX25Y25*%
%IPPOS*%
%LPD*%
%AMOC8*
5,1,8,0,0,1.08239X$1,22.5*
%
%ADD10C,0.05543*%
%ADD11R,0.05150X0.05150*%
%ADD12C,0.16598*%
%ADD13C,0.15024*%
%ADD14C,0.06500*%
%ADD15R,0.06500X0.06500*%
%ADD16C,0.05200*%
%ADD17C,0.01000*%
%ADD18C,0.01600*%
%ADD19C,0.05315*%
%ADD20C,0.04000*%
D10*
X0011800Y0011800D03*
X0011800Y0021800D03*
X0011800Y0031800D03*
X0011800Y0041800D03*
X0011800Y0051800D03*
X0011800Y0061800D03*
X0011800Y0081800D03*
X0011800Y0091800D03*
X0011800Y0101800D03*
X0011800Y0111800D03*
X0011800Y0121800D03*
X0011800Y0131800D03*
X0011800Y0141800D03*
X0011800Y0151800D03*
X0201800Y0146800D03*
X0201800Y0136800D03*
X0201800Y0126800D03*
X0201800Y0116800D03*
X0201800Y0106800D03*
X0201800Y0096800D03*
X0201800Y0081800D03*
X0201800Y0071800D03*
X0201800Y0061800D03*
X0201800Y0051800D03*
X0201800Y0041800D03*
X0201800Y0031800D03*
X0201800Y0021800D03*
X0201800Y0011800D03*
X0201800Y0156800D03*
X0201800Y0166800D03*
X0201800Y0176800D03*
X0201800Y0186800D03*
D11*
X0171800Y0176800D03*
X0161800Y0176800D03*
X0151800Y0176800D03*
X0141800Y0176800D03*
X0131800Y0176800D03*
X0121800Y0176800D03*
X0111800Y0176800D03*
X0101800Y0176800D03*
X0101800Y0126800D03*
X0111800Y0126800D03*
X0121800Y0126800D03*
X0131800Y0126800D03*
X0141800Y0126800D03*
X0151800Y0126800D03*
X0161800Y0126800D03*
X0171800Y0126800D03*
X0151800Y0081800D03*
X0141800Y0081800D03*
X0131800Y0081800D03*
X0121800Y0081800D03*
X0106800Y0061800D03*
X0106800Y0051800D03*
X0106800Y0041800D03*
X0106800Y0031800D03*
X0106800Y0021800D03*
X0106800Y0011800D03*
X0071800Y0086800D03*
X0061800Y0086800D03*
X0051800Y0086800D03*
X0041800Y0086800D03*
X0051800Y0104300D03*
X0061800Y0104300D03*
X0071800Y0104300D03*
X0071800Y0121800D03*
X0061800Y0121800D03*
X0051800Y0121800D03*
D12*
X0061800Y0060343D03*
X0151800Y0060343D03*
D13*
X0170698Y0049123D03*
X0151800Y0035737D03*
X0061800Y0035737D03*
X0042902Y0049123D03*
D14*
X0111800Y0101800D03*
D15*
X0101800Y0101800D03*
D16*
X0074400Y0141800D02*
X0069200Y0141800D01*
X0069200Y0151800D02*
X0074400Y0151800D01*
X0074400Y0161800D02*
X0069200Y0161800D01*
X0044400Y0161800D02*
X0039200Y0161800D01*
X0039200Y0151800D02*
X0044400Y0151800D01*
X0044400Y0141800D02*
X0039200Y0141800D01*
D17*
X0041800Y0141800D02*
X0043050Y0141800D01*
X0055550Y0129300D01*
X0070550Y0129300D01*
X0078050Y0136800D01*
X0151800Y0136800D01*
X0151800Y0176800D01*
X0161800Y0176800D02*
X0169300Y0184300D01*
X0194300Y0184300D01*
X0194300Y0079300D01*
X0201800Y0071800D01*
X0186800Y0079300D02*
X0186800Y0046800D01*
X0183050Y0021800D02*
X0183050Y0078050D01*
X0186800Y0079300D02*
X0184300Y0081800D01*
X0184300Y0125550D01*
X0183050Y0126800D01*
X0151800Y0126800D02*
X0151800Y0081800D01*
X0141800Y0081800D02*
X0141800Y0126800D01*
X0131800Y0126800D02*
X0131800Y0081800D01*
X0121800Y0081800D02*
X0121800Y0126800D01*
X0101800Y0126800D02*
X0101800Y0101800D01*
X0094300Y0096800D02*
X0116800Y0074300D01*
X0108050Y0075550D02*
X0099300Y0066800D01*
X0099300Y0011800D01*
X0106800Y0011800D01*
X0106800Y0021800D02*
X0183050Y0021800D01*
X0146800Y0051800D02*
X0146800Y0053050D01*
X0151800Y0058050D01*
X0151800Y0060343D01*
X0146800Y0051800D02*
X0106800Y0051800D01*
X0061800Y0060343D02*
X0061800Y0086800D01*
X0061800Y0094300D02*
X0019300Y0094300D01*
X0019300Y0069300D01*
X0011800Y0061800D01*
X0061800Y0094300D02*
X0071800Y0104300D01*
X0071800Y0121800D02*
X0094300Y0121800D01*
X0094300Y0096800D01*
X0061800Y0121800D02*
X0059300Y0124300D01*
X0059300Y0125550D01*
X0055550Y0129300D01*
X0041800Y0141800D02*
X0011800Y0111800D01*
X0071800Y0141800D02*
X0096800Y0141800D01*
X0131800Y0176800D01*
X0121800Y0176800D02*
X0096800Y0151800D01*
X0071800Y0151800D01*
X0071800Y0161800D02*
X0096800Y0161800D01*
X0111800Y0176800D01*
D18*
X0115975Y0176986D02*
X0117625Y0176986D01*
X0117625Y0175595D02*
X0115975Y0173945D01*
X0115975Y0180038D01*
X0115038Y0180975D01*
X0108562Y0180975D01*
X0107625Y0180038D01*
X0107625Y0175595D01*
X0105975Y0173945D01*
X0105975Y0180038D01*
X0105038Y0180975D01*
X0098562Y0180975D01*
X0097625Y0180038D01*
X0097625Y0173562D01*
X0098562Y0172625D01*
X0104655Y0172625D01*
X0095930Y0163900D01*
X0078076Y0163900D01*
X0077961Y0164179D01*
X0076779Y0165361D01*
X0075235Y0166000D01*
X0068365Y0166000D01*
X0066821Y0165361D01*
X0065639Y0164179D01*
X0065000Y0162635D01*
X0065000Y0160965D01*
X0065639Y0159421D01*
X0066821Y0158239D01*
X0068365Y0157600D01*
X0075235Y0157600D01*
X0076779Y0158239D01*
X0077961Y0159421D01*
X0078076Y0159700D01*
X0097670Y0159700D01*
X0098900Y0160930D01*
X0110595Y0172625D01*
X0114655Y0172625D01*
X0095930Y0153900D01*
X0078076Y0153900D01*
X0077961Y0154179D01*
X0076779Y0155361D01*
X0075235Y0156000D01*
X0068365Y0156000D01*
X0066821Y0155361D01*
X0065639Y0154179D01*
X0065000Y0152635D01*
X0065000Y0150965D01*
X0065639Y0149421D01*
X0066821Y0148239D01*
X0068365Y0147600D01*
X0075235Y0147600D01*
X0076779Y0148239D01*
X0077961Y0149421D01*
X0078076Y0149700D01*
X0097670Y0149700D01*
X0098900Y0150930D01*
X0120595Y0172625D01*
X0124655Y0172625D01*
X0095930Y0143900D01*
X0078076Y0143900D01*
X0077961Y0144179D01*
X0076779Y0145361D01*
X0075235Y0146000D01*
X0068365Y0146000D01*
X0066821Y0145361D01*
X0065639Y0144179D01*
X0065000Y0142635D01*
X0065000Y0140965D01*
X0065639Y0139421D01*
X0066821Y0138239D01*
X0068365Y0137600D01*
X0075235Y0137600D01*
X0076336Y0138056D01*
X0069680Y0131400D01*
X0056420Y0131400D01*
X0048089Y0139731D01*
X0048600Y0140965D01*
X0048600Y0142635D01*
X0047961Y0144179D01*
X0046779Y0145361D01*
X0045235Y0146000D01*
X0038365Y0146000D01*
X0036821Y0145361D01*
X0035639Y0144179D01*
X0035000Y0142635D01*
X0035000Y0140965D01*
X0035639Y0139421D01*
X0036045Y0139015D01*
X0013046Y0116016D01*
X0012670Y0116172D01*
X0011600Y0116172D01*
X0011600Y0117428D01*
X0012670Y0117428D01*
X0014276Y0118094D01*
X0015506Y0119324D01*
X0016172Y0120930D01*
X0016172Y0122670D01*
X0015506Y0124276D01*
X0014276Y0125506D01*
X0012670Y0126172D01*
X0011600Y0126172D01*
X0011600Y0127428D01*
X0012670Y0127428D01*
X0014276Y0128094D01*
X0015506Y0129324D01*
X0016172Y0130930D01*
X0016172Y0132670D01*
X0015506Y0134276D01*
X0014276Y0135506D01*
X0012670Y0136172D01*
X0011600Y0136172D01*
X0011600Y0137428D01*
X0012670Y0137428D01*
X0014276Y0138094D01*
X0015506Y0139324D01*
X0016172Y0140930D01*
X0016172Y0142670D01*
X0015506Y0144276D01*
X0014276Y0145506D01*
X0012670Y0146172D01*
X0011600Y0146172D01*
X0011600Y0147428D01*
X0012670Y0147428D01*
X0014276Y0148094D01*
X0015506Y0149324D01*
X0016172Y0150930D01*
X0016172Y0152670D01*
X0015506Y0154276D01*
X0014276Y0155506D01*
X0012670Y0156172D01*
X0011600Y0156172D01*
X0011600Y0186967D01*
X0197428Y0187227D01*
X0197428Y0185930D01*
X0198094Y0184324D01*
X0199324Y0183094D01*
X0200930Y0182428D01*
X0202231Y0182428D01*
X0202230Y0181172D01*
X0200930Y0181172D01*
X0199324Y0180506D01*
X0198094Y0179276D01*
X0197428Y0177670D01*
X0197428Y0175930D01*
X0198094Y0174324D01*
X0199324Y0173094D01*
X0200930Y0172428D01*
X0202221Y0172428D01*
X0202219Y0171172D01*
X0200930Y0171172D01*
X0199324Y0170506D01*
X0198094Y0169276D01*
X0197428Y0167670D01*
X0197428Y0165930D01*
X0198094Y0164324D01*
X0199324Y0163094D01*
X0200930Y0162428D01*
X0202210Y0162428D01*
X0202209Y0161364D01*
X0202160Y0161372D01*
X0201886Y0161372D01*
X0201886Y0156886D01*
X0201714Y0156886D01*
X0201714Y0161372D01*
X0201440Y0161372D01*
X0200729Y0161259D01*
X0200045Y0161037D01*
X0199404Y0160710D01*
X0198822Y0160287D01*
X0198313Y0159778D01*
X0197890Y0159196D01*
X0197563Y0158555D01*
X0197341Y0157871D01*
X0197228Y0157160D01*
X0197228Y0156886D01*
X0201714Y0156886D01*
X0201714Y0156714D01*
X0201886Y0156714D01*
X0201886Y0152228D01*
X0202160Y0152228D01*
X0202200Y0152235D01*
X0202199Y0151172D01*
X0200930Y0151172D01*
X0199324Y0150506D01*
X0198094Y0149276D01*
X0197428Y0147670D01*
X0197428Y0145930D01*
X0198094Y0144324D01*
X0199324Y0143094D01*
X0200930Y0142428D01*
X0202190Y0142428D01*
X0202189Y0141172D01*
X0200930Y0141172D01*
X0199324Y0140506D01*
X0198094Y0139276D01*
X0197428Y0137670D01*
X0197428Y0135930D01*
X0198094Y0134324D01*
X0199324Y0133094D01*
X0200930Y0132428D01*
X0202180Y0132428D01*
X0202178Y0131172D01*
X0200930Y0131172D01*
X0199324Y0130506D01*
X0198094Y0129276D01*
X0197428Y0127670D01*
X0197428Y0125930D01*
X0198094Y0124324D01*
X0199324Y0123094D01*
X0200930Y0122428D01*
X0202169Y0122428D01*
X0202168Y0121172D01*
X0200930Y0121172D01*
X0199324Y0120506D01*
X0198094Y0119276D01*
X0197428Y0117670D01*
X0197428Y0115930D01*
X0198094Y0114324D01*
X0199324Y0113094D01*
X0200930Y0112428D01*
X0202159Y0112428D01*
X0202158Y0111172D01*
X0200930Y0111172D01*
X0199324Y0110506D01*
X0198094Y0109276D01*
X0197428Y0107670D01*
X0197428Y0105930D01*
X0198094Y0104324D01*
X0199324Y0103094D01*
X0200930Y0102428D01*
X0202149Y0102428D01*
X0202148Y0101172D01*
X0200930Y0101172D01*
X0199324Y0100506D01*
X0198094Y0099276D01*
X0197428Y0097670D01*
X0197428Y0095930D01*
X0198094Y0094324D01*
X0199324Y0093094D01*
X0200930Y0092428D01*
X0202139Y0092428D01*
X0202132Y0086172D01*
X0200930Y0086172D01*
X0199324Y0085506D01*
X0198094Y0084276D01*
X0197428Y0082670D01*
X0197428Y0080930D01*
X0198094Y0079324D01*
X0199324Y0078094D01*
X0200930Y0077428D01*
X0202123Y0077428D01*
X0202122Y0076172D01*
X0200930Y0076172D01*
X0200554Y0076016D01*
X0196400Y0080170D01*
X0196400Y0185170D01*
X0195170Y0186400D01*
X0168430Y0186400D01*
X0167200Y0185170D01*
X0163005Y0180975D01*
X0158562Y0180975D01*
X0157625Y0180038D01*
X0157625Y0173562D01*
X0158562Y0172625D01*
X0165038Y0172625D01*
X0165975Y0173562D01*
X0165975Y0178005D01*
X0167625Y0179655D01*
X0167625Y0173562D01*
X0168562Y0172625D01*
X0175038Y0172625D01*
X0175975Y0173562D01*
X0175975Y0180038D01*
X0175038Y0180975D01*
X0168945Y0180975D01*
X0170170Y0182200D01*
X0192200Y0182200D01*
X0192200Y0078430D01*
X0197584Y0073046D01*
X0197428Y0072670D01*
X0197428Y0070930D01*
X0198094Y0069324D01*
X0199324Y0068094D01*
X0200930Y0067428D01*
X0202113Y0067428D01*
X0202112Y0066172D01*
X0200930Y0066172D01*
X0199324Y0065506D01*
X0198094Y0064276D01*
X0197428Y0062670D01*
X0197428Y0060930D01*
X0198094Y0059324D01*
X0199324Y0058094D01*
X0200930Y0057428D01*
X0202103Y0057428D01*
X0202102Y0056172D01*
X0200930Y0056172D01*
X0199324Y0055506D01*
X0198094Y0054276D01*
X0197428Y0052670D01*
X0197428Y0050930D01*
X0198094Y0049324D01*
X0199324Y0048094D01*
X0200930Y0047428D01*
X0202093Y0047428D01*
X0202091Y0046172D01*
X0200930Y0046172D01*
X0199324Y0045506D01*
X0198094Y0044276D01*
X0197428Y0042670D01*
X0197428Y0040930D01*
X0198094Y0039324D01*
X0199324Y0038094D01*
X0200930Y0037428D01*
X0202082Y0037428D01*
X0202081Y0036172D01*
X0200930Y0036172D01*
X0199324Y0035506D01*
X0198094Y0034276D01*
X0197428Y0032670D01*
X0197428Y0030930D01*
X0198094Y0029324D01*
X0199324Y0028094D01*
X0200930Y0027428D01*
X0202072Y0027428D01*
X0202071Y0026172D01*
X0200930Y0026172D01*
X0199324Y0025506D01*
X0198094Y0024276D01*
X0197428Y0022670D01*
X0197428Y0020930D01*
X0198094Y0019324D01*
X0199324Y0018094D01*
X0200930Y0017428D01*
X0202062Y0017428D01*
X0202061Y0016172D01*
X0200930Y0016172D01*
X0199324Y0015506D01*
X0198094Y0014276D01*
X0197428Y0012670D01*
X0197428Y0011448D01*
X0110975Y0011517D01*
X0110975Y0015038D01*
X0110038Y0015975D01*
X0103562Y0015975D01*
X0102625Y0015038D01*
X0102625Y0013900D01*
X0101400Y0013900D01*
X0101400Y0065930D01*
X0107420Y0071950D01*
X0108766Y0071950D01*
X0110089Y0072498D01*
X0111102Y0073511D01*
X0111650Y0074834D01*
X0111650Y0076266D01*
X0111499Y0076632D01*
X0113200Y0074930D01*
X0113200Y0073584D01*
X0113748Y0072261D01*
X0114761Y0071248D01*
X0116084Y0070700D01*
X0117516Y0070700D01*
X0118839Y0071248D01*
X0119852Y0072261D01*
X0120400Y0073584D01*
X0120400Y0075016D01*
X0119852Y0076339D01*
X0118839Y0077352D01*
X0117516Y0077900D01*
X0116170Y0077900D01*
X0096400Y0097670D01*
X0096400Y0122670D01*
X0095170Y0123900D01*
X0075975Y0123900D01*
X0075975Y0125038D01*
X0075038Y0125975D01*
X0068562Y0125975D01*
X0067625Y0125038D01*
X0067625Y0118562D01*
X0068562Y0117625D01*
X0075038Y0117625D01*
X0075975Y0118562D01*
X0075975Y0119700D01*
X0092200Y0119700D01*
X0092200Y0095930D01*
X0109132Y0078999D01*
X0108766Y0079150D01*
X0107334Y0079150D01*
X0106011Y0078602D01*
X0104998Y0077589D01*
X0104450Y0076266D01*
X0104450Y0074920D01*
X0097200Y0067670D01*
X0097200Y0011528D01*
X0016172Y0011592D01*
X0016172Y0012670D01*
X0015506Y0014276D01*
X0014276Y0015506D01*
X0012670Y0016172D01*
X0011600Y0016172D01*
X0011600Y0017428D01*
X0012670Y0017428D01*
X0014276Y0018094D01*
X0015506Y0019324D01*
X0016172Y0020930D01*
X0016172Y0022670D01*
X0015506Y0024276D01*
X0014276Y0025506D01*
X0012670Y0026172D01*
X0011600Y0026172D01*
X0011600Y0027428D01*
X0012670Y0027428D01*
X0014276Y0028094D01*
X0015506Y0029324D01*
X0016172Y0030930D01*
X0016172Y0032670D01*
X0015506Y0034276D01*
X0014276Y0035506D01*
X0012670Y0036172D01*
X0011600Y0036172D01*
X0011600Y0037428D01*
X0012670Y0037428D01*
X0014276Y0038094D01*
X0015506Y0039324D01*
X0016172Y0040930D01*
X0016172Y0042670D01*
X0015506Y0044276D01*
X0014276Y0045506D01*
X0012670Y0046172D01*
X0011600Y0046172D01*
X0011600Y0047428D01*
X0012670Y0047428D01*
X0014276Y0048094D01*
X0015506Y0049324D01*
X0016172Y0050930D01*
X0016172Y0052670D01*
X0015506Y0054276D01*
X0014276Y0055506D01*
X0012670Y0056172D01*
X0011600Y0056172D01*
X0011600Y0057428D01*
X0012670Y0057428D01*
X0014276Y0058094D01*
X0015506Y0059324D01*
X0016172Y0060930D01*
X0016172Y0062670D01*
X0016016Y0063046D01*
X0021400Y0068430D01*
X0021400Y0092200D01*
X0062670Y0092200D01*
X0063900Y0093430D01*
X0070595Y0100125D01*
X0075038Y0100125D01*
X0075975Y0101062D01*
X0075975Y0107538D01*
X0075038Y0108475D01*
X0068562Y0108475D01*
X0067625Y0107538D01*
X0067625Y0103095D01*
X0065975Y0101445D01*
X0065975Y0107538D01*
X0065038Y0108475D01*
X0058562Y0108475D01*
X0057625Y0107538D01*
X0057625Y0101062D01*
X0058562Y0100125D01*
X0064655Y0100125D01*
X0060930Y0096400D01*
X0018430Y0096400D01*
X0017200Y0095170D01*
X0017200Y0070170D01*
X0013046Y0066016D01*
X0012670Y0066172D01*
X0011600Y0066172D01*
X0011600Y0077428D01*
X0012670Y0077428D01*
X0014276Y0078094D01*
X0015506Y0079324D01*
X0016172Y0080930D01*
X0016172Y0082670D01*
X0015506Y0084276D01*
X0014276Y0085506D01*
X0012670Y0086172D01*
X0011600Y0086172D01*
X0011600Y0087228D01*
X0011714Y0087228D01*
X0011714Y0091714D01*
X0011886Y0091714D01*
X0011886Y0091886D01*
X0011714Y0091886D01*
X0011714Y0096372D01*
X0011600Y0096372D01*
X0011600Y0097228D01*
X0011714Y0097228D01*
X0011714Y0101714D01*
X0011886Y0101714D01*
X0011886Y0101886D01*
X0011714Y0101886D01*
X0011714Y0106372D01*
X0011600Y0106372D01*
X0011600Y0107428D01*
X0012670Y0107428D01*
X0014276Y0108094D01*
X0015506Y0109324D01*
X0016172Y0110930D01*
X0016172Y0112670D01*
X0016016Y0113046D01*
X0040570Y0137600D01*
X0044280Y0137600D01*
X0053450Y0128430D01*
X0054680Y0127200D01*
X0057200Y0124680D01*
X0057200Y0123430D01*
X0057625Y0123005D01*
X0057625Y0118562D01*
X0058562Y0117625D01*
X0065038Y0117625D01*
X0065975Y0118562D01*
X0065975Y0125038D01*
X0065038Y0125975D01*
X0061400Y0125975D01*
X0061400Y0126420D01*
X0060620Y0127200D01*
X0071420Y0127200D01*
X0072650Y0128430D01*
X0078920Y0134700D01*
X0152670Y0134700D01*
X0153900Y0135930D01*
X0153900Y0172625D01*
X0155038Y0172625D01*
X0155975Y0173562D01*
X0155975Y0180038D01*
X0155038Y0180975D01*
X0148562Y0180975D01*
X0147625Y0180038D01*
X0147625Y0173562D01*
X0148562Y0172625D01*
X0149700Y0172625D01*
X0149700Y0138900D01*
X0077440Y0138900D01*
X0077961Y0139421D01*
X0078076Y0139700D01*
X0097670Y0139700D01*
X0098900Y0140930D01*
X0130595Y0172625D01*
X0135038Y0172625D01*
X0135975Y0173562D01*
X0135975Y0180038D01*
X0135038Y0180975D01*
X0128562Y0180975D01*
X0127625Y0180038D01*
X0127625Y0175595D01*
X0125975Y0173945D01*
X0125975Y0180038D01*
X0125038Y0180975D01*
X0118562Y0180975D01*
X0117625Y0180038D01*
X0117625Y0175595D01*
X0117417Y0175387D02*
X0115975Y0175387D01*
X0115975Y0178584D02*
X0117625Y0178584D01*
X0117770Y0180183D02*
X0115830Y0180183D01*
X0107770Y0180183D02*
X0105830Y0180183D01*
X0105975Y0178584D02*
X0107625Y0178584D01*
X0107625Y0176986D02*
X0105975Y0176986D01*
X0105975Y0175387D02*
X0107417Y0175387D01*
X0110160Y0172190D02*
X0114220Y0172190D01*
X0112622Y0170592D02*
X0108561Y0170592D01*
X0106963Y0168993D02*
X0111023Y0168993D01*
X0109425Y0167395D02*
X0105364Y0167395D01*
X0103766Y0165796D02*
X0107826Y0165796D01*
X0106228Y0164198D02*
X0102167Y0164198D01*
X0100569Y0162599D02*
X0104629Y0162599D01*
X0103031Y0161001D02*
X0098970Y0161001D01*
X0101432Y0159402D02*
X0077942Y0159402D01*
X0075727Y0157803D02*
X0099834Y0157803D01*
X0098235Y0156205D02*
X0011600Y0156205D01*
X0011600Y0157803D02*
X0037873Y0157803D01*
X0038365Y0157600D02*
X0036821Y0158239D01*
X0035639Y0159421D01*
X0035000Y0160965D01*
X0035000Y0162635D01*
X0035639Y0164179D01*
X0036821Y0165361D01*
X0038365Y0166000D01*
X0045235Y0166000D01*
X0046779Y0165361D01*
X0047961Y0164179D01*
X0048600Y0162635D01*
X0048600Y0160965D01*
X0047961Y0159421D01*
X0046779Y0158239D01*
X0045235Y0157600D01*
X0038365Y0157600D01*
X0038365Y0156000D02*
X0036821Y0155361D01*
X0035639Y0154179D01*
X0035000Y0152635D01*
X0035000Y0150965D01*
X0035639Y0149421D01*
X0036821Y0148239D01*
X0038365Y0147600D01*
X0045235Y0147600D01*
X0046779Y0148239D01*
X0047961Y0149421D01*
X0048600Y0150965D01*
X0048600Y0152635D01*
X0047961Y0154179D01*
X0046779Y0155361D01*
X0045235Y0156000D01*
X0038365Y0156000D01*
X0036067Y0154606D02*
X0015176Y0154606D01*
X0016031Y0153008D02*
X0035154Y0153008D01*
X0035000Y0151409D02*
X0016172Y0151409D01*
X0015708Y0149811D02*
X0035478Y0149811D01*
X0036886Y0148212D02*
X0014395Y0148212D01*
X0014767Y0145015D02*
X0036476Y0145015D01*
X0035324Y0143417D02*
X0015862Y0143417D01*
X0016172Y0141818D02*
X0035000Y0141818D01*
X0035308Y0140220D02*
X0015877Y0140220D01*
X0014804Y0138621D02*
X0035652Y0138621D01*
X0034053Y0137023D02*
X0011600Y0137023D01*
X0014358Y0135424D02*
X0032455Y0135424D01*
X0030856Y0133826D02*
X0015693Y0133826D01*
X0016172Y0132227D02*
X0029257Y0132227D01*
X0027659Y0130629D02*
X0016047Y0130629D01*
X0015213Y0129030D02*
X0026060Y0129030D01*
X0024462Y0127432D02*
X0012678Y0127432D01*
X0013486Y0125833D02*
X0022863Y0125833D01*
X0021265Y0124235D02*
X0015523Y0124235D01*
X0016172Y0122636D02*
X0019666Y0122636D01*
X0018068Y0121038D02*
X0016172Y0121038D01*
X0016469Y0119439D02*
X0015554Y0119439D01*
X0014871Y0117841D02*
X0013665Y0117841D01*
X0013272Y0116242D02*
X0011600Y0116242D01*
X0016016Y0113045D02*
X0092200Y0113045D01*
X0092200Y0111447D02*
X0016172Y0111447D01*
X0015723Y0109848D02*
X0092200Y0109848D01*
X0092200Y0108250D02*
X0075263Y0108250D01*
X0075975Y0106651D02*
X0092200Y0106651D01*
X0092200Y0105053D02*
X0075975Y0105053D01*
X0075975Y0103454D02*
X0092200Y0103454D01*
X0092200Y0101856D02*
X0075975Y0101856D01*
X0075169Y0100257D02*
X0092200Y0100257D01*
X0092200Y0098659D02*
X0069128Y0098659D01*
X0067530Y0097060D02*
X0092200Y0097060D01*
X0092669Y0095462D02*
X0065931Y0095462D01*
X0064333Y0093863D02*
X0094267Y0093863D01*
X0095866Y0092265D02*
X0062734Y0092265D01*
X0065038Y0090975D02*
X0065975Y0090038D01*
X0065975Y0083562D01*
X0065038Y0082625D01*
X0063900Y0082625D01*
X0063900Y0070188D01*
X0067407Y0068735D01*
X0070192Y0065951D01*
X0071699Y0062312D01*
X0071699Y0058374D01*
X0070192Y0054736D01*
X0067407Y0051951D01*
X0063769Y0050444D01*
X0059831Y0050444D01*
X0056193Y0051951D01*
X0053408Y0054736D01*
X0051901Y0058374D01*
X0051901Y0062312D01*
X0053408Y0065951D01*
X0056193Y0068735D01*
X0059700Y0070188D01*
X0059700Y0082625D01*
X0058562Y0082625D01*
X0057625Y0083562D01*
X0057625Y0090038D01*
X0058562Y0090975D01*
X0065038Y0090975D01*
X0065346Y0090666D02*
X0067971Y0090666D01*
X0068120Y0090815D02*
X0067785Y0090480D01*
X0067548Y0090070D01*
X0067425Y0089612D01*
X0067425Y0086800D01*
X0071800Y0086800D01*
X0071800Y0086800D01*
X0071800Y0091175D01*
X0068988Y0091175D01*
X0068530Y0091052D01*
X0068120Y0090815D01*
X0067425Y0089068D02*
X0065975Y0089068D01*
X0065975Y0087469D02*
X0067425Y0087469D01*
X0067425Y0086800D02*
X0067425Y0083988D01*
X0067548Y0083530D01*
X0067785Y0083120D01*
X0068120Y0082785D01*
X0068530Y0082548D01*
X0068988Y0082425D01*
X0071800Y0082425D01*
X0074612Y0082425D01*
X0075070Y0082548D01*
X0075480Y0082785D01*
X0075815Y0083120D01*
X0076052Y0083530D01*
X0076175Y0083988D01*
X0076175Y0086800D01*
X0076175Y0089612D01*
X0076052Y0090070D01*
X0075815Y0090480D01*
X0075480Y0090815D01*
X0075070Y0091052D01*
X0074612Y0091175D01*
X0071800Y0091175D01*
X0071800Y0086800D01*
X0076175Y0086800D01*
X0071800Y0086800D01*
X0071800Y0086800D01*
X0071800Y0082425D01*
X0071800Y0086800D01*
X0071800Y0086800D01*
X0071800Y0086800D01*
X0067425Y0086800D01*
X0067425Y0085870D02*
X0065975Y0085870D01*
X0065975Y0084272D02*
X0067425Y0084272D01*
X0068313Y0082673D02*
X0065086Y0082673D01*
X0063900Y0081075D02*
X0107055Y0081075D01*
X0105457Y0082673D02*
X0075287Y0082673D01*
X0076175Y0084272D02*
X0103858Y0084272D01*
X0102260Y0085870D02*
X0076175Y0085870D01*
X0076175Y0087469D02*
X0100661Y0087469D01*
X0099063Y0089068D02*
X0076175Y0089068D01*
X0075629Y0090666D02*
X0097464Y0090666D01*
X0100207Y0093863D02*
X0119700Y0093863D01*
X0119700Y0092265D02*
X0101805Y0092265D01*
X0103404Y0090666D02*
X0119700Y0090666D01*
X0119700Y0089068D02*
X0105002Y0089068D01*
X0106601Y0087469D02*
X0119700Y0087469D01*
X0119700Y0085975D02*
X0118562Y0085975D01*
X0117625Y0085038D01*
X0117625Y0078562D01*
X0118562Y0077625D01*
X0125038Y0077625D01*
X0125975Y0078562D01*
X0125975Y0085038D01*
X0125038Y0085975D01*
X0123900Y0085975D01*
X0123900Y0122625D01*
X0125038Y0122625D01*
X0125975Y0123562D01*
X0125975Y0130038D01*
X0125038Y0130975D01*
X0118562Y0130975D01*
X0117625Y0130038D01*
X0117625Y0123562D01*
X0118562Y0122625D01*
X0119700Y0122625D01*
X0119700Y0085975D01*
X0118458Y0085870D02*
X0108199Y0085870D01*
X0109798Y0084272D02*
X0117625Y0084272D01*
X0117625Y0082673D02*
X0111396Y0082673D01*
X0112995Y0081075D02*
X0117625Y0081075D01*
X0117625Y0079476D02*
X0114593Y0079476D01*
X0117569Y0077878D02*
X0118310Y0077878D01*
X0119877Y0076279D02*
X0179887Y0076279D01*
X0179998Y0076011D02*
X0180950Y0075059D01*
X0180950Y0023900D01*
X0110975Y0023900D01*
X0110975Y0025038D01*
X0110038Y0025975D01*
X0103562Y0025975D01*
X0102625Y0025038D01*
X0102625Y0018562D01*
X0103562Y0017625D01*
X0110038Y0017625D01*
X0110975Y0018562D01*
X0110975Y0019700D01*
X0183920Y0019700D01*
X0185150Y0020930D01*
X0185150Y0043587D01*
X0186084Y0043200D01*
X0187516Y0043200D01*
X0188839Y0043748D01*
X0189852Y0044761D01*
X0190400Y0046084D01*
X0190400Y0047516D01*
X0189852Y0048839D01*
X0188900Y0049791D01*
X0188900Y0080170D01*
X0187670Y0081400D01*
X0187670Y0081400D01*
X0186400Y0082670D01*
X0186400Y0125480D01*
X0186650Y0126084D01*
X0186650Y0127516D01*
X0186102Y0128839D01*
X0185089Y0129852D01*
X0183766Y0130400D01*
X0182334Y0130400D01*
X0181011Y0129852D01*
X0179998Y0128839D01*
X0179450Y0127516D01*
X0179450Y0126084D01*
X0179998Y0124761D01*
X0181011Y0123748D01*
X0182200Y0123255D01*
X0182200Y0081595D01*
X0181011Y0081102D01*
X0179998Y0080089D01*
X0179450Y0078766D01*
X0179450Y0077334D01*
X0179998Y0076011D01*
X0180950Y0074681D02*
X0120400Y0074681D01*
X0120192Y0073082D02*
X0180950Y0073082D01*
X0180950Y0071484D02*
X0119075Y0071484D01*
X0114525Y0071484D02*
X0106954Y0071484D01*
X0105355Y0069885D02*
X0148969Y0069885D01*
X0149831Y0070243D02*
X0146193Y0068735D01*
X0143408Y0065951D01*
X0141901Y0062312D01*
X0141901Y0058374D01*
X0143408Y0054736D01*
X0144244Y0053900D01*
X0110975Y0053900D01*
X0110975Y0055038D01*
X0110038Y0055975D01*
X0103562Y0055975D01*
X0102625Y0055038D01*
X0102625Y0048562D01*
X0103562Y0047625D01*
X0110038Y0047625D01*
X0110975Y0048562D01*
X0110975Y0049700D01*
X0147670Y0049700D01*
X0148829Y0050859D01*
X0149831Y0050444D01*
X0153769Y0050444D01*
X0157407Y0051951D01*
X0160192Y0054736D01*
X0161699Y0058374D01*
X0161699Y0062312D01*
X0160192Y0065951D01*
X0157407Y0068735D01*
X0153769Y0070243D01*
X0149831Y0070243D01*
X0145744Y0068287D02*
X0103757Y0068287D01*
X0102158Y0066688D02*
X0144145Y0066688D01*
X0143051Y0065090D02*
X0110922Y0065090D01*
X0110975Y0065038D02*
X0110038Y0065975D01*
X0103562Y0065975D01*
X0102625Y0065038D01*
X0102625Y0058562D01*
X0103562Y0057625D01*
X0110038Y0057625D01*
X0110975Y0058562D01*
X0110975Y0065038D01*
X0110975Y0063491D02*
X0142389Y0063491D01*
X0141901Y0061893D02*
X0110975Y0061893D01*
X0110975Y0060294D02*
X0141901Y0060294D01*
X0141901Y0058696D02*
X0110975Y0058696D01*
X0110514Y0055499D02*
X0143092Y0055499D01*
X0142430Y0057097D02*
X0101400Y0057097D01*
X0101400Y0055499D02*
X0103086Y0055499D01*
X0102625Y0053900D02*
X0101400Y0053900D01*
X0101400Y0052302D02*
X0102625Y0052302D01*
X0102625Y0050703D02*
X0101400Y0050703D01*
X0101400Y0049105D02*
X0102625Y0049105D01*
X0101400Y0047506D02*
X0161586Y0047506D01*
X0161586Y0047310D02*
X0162973Y0043961D01*
X0165536Y0041398D01*
X0168885Y0040011D01*
X0172510Y0040011D01*
X0175859Y0041398D01*
X0178422Y0043961D01*
X0179809Y0047310D01*
X0179809Y0050935D01*
X0178422Y0054284D01*
X0175859Y0056847D01*
X0172510Y0058235D01*
X0168885Y0058235D01*
X0165536Y0056847D01*
X0162973Y0054284D01*
X0161586Y0050935D01*
X0161586Y0047310D01*
X0162167Y0045908D02*
X0110320Y0045908D01*
X0110480Y0045815D02*
X0110070Y0046052D01*
X0109612Y0046175D01*
X0106800Y0046175D01*
X0106800Y0041800D01*
X0106800Y0041800D01*
X0111175Y0041800D01*
X0111175Y0044612D01*
X0111052Y0045070D01*
X0110815Y0045480D01*
X0110480Y0045815D01*
X0111175Y0044309D02*
X0148685Y0044309D01*
X0149988Y0044849D02*
X0146639Y0043462D01*
X0144075Y0040898D01*
X0142688Y0037549D01*
X0142688Y0033925D01*
X0144075Y0030576D01*
X0146639Y0028012D01*
X0149988Y0026625D01*
X0153612Y0026625D01*
X0156961Y0028012D01*
X0159525Y0030576D01*
X0160912Y0033925D01*
X0160912Y0037549D01*
X0159525Y0040898D01*
X0156961Y0043462D01*
X0153612Y0044849D01*
X0149988Y0044849D01*
X0145888Y0042711D02*
X0111175Y0042711D01*
X0111175Y0041800D02*
X0106800Y0041800D01*
X0106800Y0041800D01*
X0106800Y0037425D01*
X0109612Y0037425D01*
X0110070Y0037548D01*
X0110480Y0037785D01*
X0110815Y0038120D01*
X0111052Y0038530D01*
X0111175Y0038988D01*
X0111175Y0041800D01*
X0111175Y0041112D02*
X0144289Y0041112D01*
X0143502Y0039514D02*
X0111175Y0039514D01*
X0110610Y0037915D02*
X0142840Y0037915D01*
X0142688Y0036317D02*
X0101400Y0036317D01*
X0101400Y0037915D02*
X0102990Y0037915D01*
X0103120Y0037785D02*
X0103530Y0037548D01*
X0103988Y0037425D01*
X0106800Y0037425D01*
X0106800Y0041800D01*
X0106800Y0041800D01*
X0106800Y0041800D01*
X0102425Y0041800D01*
X0102425Y0044612D01*
X0102548Y0045070D01*
X0102785Y0045480D01*
X0103120Y0045815D01*
X0103530Y0046052D01*
X0103988Y0046175D01*
X0106800Y0046175D01*
X0106800Y0041800D01*
X0102425Y0041800D01*
X0102425Y0038988D01*
X0102548Y0038530D01*
X0102785Y0038120D01*
X0103120Y0037785D01*
X0102425Y0039514D02*
X0101400Y0039514D01*
X0101400Y0041112D02*
X0102425Y0041112D01*
X0102425Y0042711D02*
X0101400Y0042711D01*
X0101400Y0044309D02*
X0102425Y0044309D01*
X0103280Y0045908D02*
X0101400Y0045908D01*
X0097200Y0045908D02*
X0051643Y0045908D01*
X0051519Y0045554D02*
X0051864Y0046541D01*
X0052097Y0047561D01*
X0052183Y0048323D01*
X0043702Y0048323D01*
X0043702Y0039842D01*
X0044465Y0039928D01*
X0045484Y0040161D01*
X0046471Y0040506D01*
X0047414Y0040960D01*
X0048299Y0041517D01*
X0049117Y0042169D01*
X0049857Y0042908D01*
X0050509Y0043726D01*
X0051065Y0044611D01*
X0051519Y0045554D01*
X0050875Y0044309D02*
X0058139Y0044309D01*
X0058231Y0044354D02*
X0057289Y0043900D01*
X0056403Y0043343D01*
X0055585Y0042691D01*
X0054846Y0041952D01*
X0054194Y0041134D01*
X0053637Y0040248D01*
X0053183Y0039306D01*
X0052838Y0038319D01*
X0052605Y0037299D01*
X0052519Y0036537D01*
X0061000Y0036537D01*
X0061000Y0034937D01*
X0062600Y0034937D01*
X0062600Y0036537D01*
X0071081Y0036537D01*
X0070995Y0037299D01*
X0070762Y0038319D01*
X0070417Y0039306D01*
X0069963Y0040248D01*
X0069406Y0041134D01*
X0068754Y0041952D01*
X0068015Y0042691D01*
X0067197Y0043343D01*
X0066311Y0043900D01*
X0065369Y0044354D01*
X0064382Y0044699D01*
X0063362Y0044932D01*
X0062600Y0045018D01*
X0062600Y0036537D01*
X0061000Y0036537D01*
X0061000Y0045018D01*
X0060238Y0044932D01*
X0059218Y0044699D01*
X0058231Y0044354D01*
X0061000Y0044309D02*
X0062600Y0044309D01*
X0062600Y0042711D02*
X0061000Y0042711D01*
X0061000Y0041112D02*
X0062600Y0041112D01*
X0062600Y0039514D02*
X0061000Y0039514D01*
X0061000Y0037915D02*
X0062600Y0037915D01*
X0062600Y0036317D02*
X0097200Y0036317D01*
X0097200Y0037915D02*
X0070854Y0037915D01*
X0070317Y0039514D02*
X0097200Y0039514D01*
X0097200Y0041112D02*
X0069420Y0041112D01*
X0067990Y0042711D02*
X0097200Y0042711D01*
X0097200Y0044309D02*
X0065461Y0044309D01*
X0064395Y0050703D02*
X0097200Y0050703D01*
X0097200Y0049105D02*
X0043702Y0049105D01*
X0043702Y0048323D02*
X0043702Y0049923D01*
X0042102Y0049923D01*
X0042102Y0048323D01*
X0033622Y0048323D01*
X0033708Y0047561D01*
X0033940Y0046541D01*
X0034286Y0045554D01*
X0034740Y0044611D01*
X0035296Y0043726D01*
X0035948Y0042908D01*
X0036688Y0042169D01*
X0037505Y0041517D01*
X0038391Y0040960D01*
X0039333Y0040506D01*
X0040320Y0040161D01*
X0041340Y0039928D01*
X0042102Y0039842D01*
X0042102Y0048323D01*
X0043702Y0048323D01*
X0043702Y0047506D02*
X0042102Y0047506D01*
X0042102Y0045908D02*
X0043702Y0045908D01*
X0043702Y0044309D02*
X0042102Y0044309D01*
X0042102Y0042711D02*
X0043702Y0042711D01*
X0043702Y0041112D02*
X0042102Y0041112D01*
X0038149Y0041112D02*
X0016172Y0041112D01*
X0016155Y0042711D02*
X0036146Y0042711D01*
X0034930Y0044309D02*
X0015473Y0044309D01*
X0013307Y0045908D02*
X0034162Y0045908D01*
X0033720Y0047506D02*
X0012858Y0047506D01*
X0015287Y0049105D02*
X0042102Y0049105D01*
X0042102Y0049923D02*
X0033622Y0049923D01*
X0033708Y0050685D01*
X0033940Y0051705D01*
X0034286Y0052692D01*
X0034740Y0053634D01*
X0035296Y0054520D01*
X0035948Y0055337D01*
X0036688Y0056077D01*
X0037505Y0056729D01*
X0038391Y0057286D01*
X0039333Y0057739D01*
X0040320Y0058085D01*
X0041340Y0058318D01*
X0042102Y0058403D01*
X0042102Y0049923D01*
X0042102Y0050703D02*
X0043702Y0050703D01*
X0043702Y0049923D02*
X0043702Y0058403D01*
X0044465Y0058318D01*
X0045484Y0058085D01*
X0046471Y0057739D01*
X0047414Y0057286D01*
X0048299Y0056729D01*
X0049117Y0056077D01*
X0049857Y0055337D01*
X0050509Y0054520D01*
X0051065Y0053634D01*
X0051519Y0052692D01*
X0051864Y0051705D01*
X0052097Y0050685D01*
X0052183Y0049923D01*
X0043702Y0049923D01*
X0043702Y0052302D02*
X0042102Y0052302D01*
X0042102Y0053900D02*
X0043702Y0053900D01*
X0043702Y0055499D02*
X0042102Y0055499D01*
X0042102Y0057097D02*
X0043702Y0057097D01*
X0047713Y0057097D02*
X0052430Y0057097D01*
X0051901Y0058696D02*
X0014878Y0058696D01*
X0015908Y0060294D02*
X0051901Y0060294D01*
X0051901Y0061893D02*
X0016172Y0061893D01*
X0016461Y0063491D02*
X0052389Y0063491D01*
X0053051Y0065090D02*
X0018060Y0065090D01*
X0019658Y0066688D02*
X0054145Y0066688D01*
X0055744Y0068287D02*
X0021257Y0068287D01*
X0021400Y0069885D02*
X0058969Y0069885D01*
X0059700Y0071484D02*
X0021400Y0071484D01*
X0021400Y0073082D02*
X0059700Y0073082D01*
X0059700Y0074681D02*
X0021400Y0074681D01*
X0021400Y0076279D02*
X0059700Y0076279D01*
X0059700Y0077878D02*
X0021400Y0077878D01*
X0021400Y0079476D02*
X0059700Y0079476D01*
X0059700Y0081075D02*
X0021400Y0081075D01*
X0021400Y0082673D02*
X0038514Y0082673D01*
X0038562Y0082625D02*
X0045038Y0082625D01*
X0045975Y0083562D01*
X0045975Y0090038D01*
X0045038Y0090975D01*
X0038562Y0090975D01*
X0037625Y0090038D01*
X0037625Y0083562D01*
X0038562Y0082625D01*
X0037625Y0084272D02*
X0021400Y0084272D01*
X0021400Y0085870D02*
X0037625Y0085870D01*
X0037625Y0087469D02*
X0021400Y0087469D01*
X0021400Y0089068D02*
X0037625Y0089068D01*
X0038254Y0090666D02*
X0021400Y0090666D01*
X0017200Y0090666D02*
X0016238Y0090666D01*
X0016259Y0090729D02*
X0016372Y0091440D01*
X0016372Y0091714D01*
X0011886Y0091714D01*
X0011886Y0087228D01*
X0012160Y0087228D01*
X0012871Y0087341D01*
X0013555Y0087563D01*
X0014196Y0087890D01*
X0014778Y0088313D01*
X0015287Y0088822D01*
X0015710Y0089404D01*
X0016037Y0090045D01*
X0016259Y0090729D01*
X0016372Y0091886D02*
X0016372Y0092160D01*
X0016259Y0092871D01*
X0016037Y0093555D01*
X0015710Y0094196D01*
X0015287Y0094778D01*
X0014778Y0095287D01*
X0014196Y0095710D01*
X0013555Y0096037D01*
X0012871Y0096259D01*
X0012160Y0096372D01*
X0011886Y0096372D01*
X0011886Y0091886D01*
X0016372Y0091886D01*
X0016355Y0092265D02*
X0017200Y0092265D01*
X0017200Y0093863D02*
X0015880Y0093863D01*
X0014538Y0095462D02*
X0017492Y0095462D01*
X0014778Y0098313D02*
X0015287Y0098822D01*
X0015710Y0099404D01*
X0016037Y0100045D01*
X0016259Y0100729D01*
X0016372Y0101440D01*
X0016372Y0101714D01*
X0011886Y0101714D01*
X0011886Y0097228D01*
X0012160Y0097228D01*
X0012871Y0097341D01*
X0013555Y0097563D01*
X0014196Y0097890D01*
X0014778Y0098313D01*
X0015124Y0098659D02*
X0063189Y0098659D01*
X0061590Y0097060D02*
X0011600Y0097060D01*
X0011714Y0095462D02*
X0011886Y0095462D01*
X0011886Y0093863D02*
X0011714Y0093863D01*
X0011714Y0092265D02*
X0011886Y0092265D01*
X0011886Y0090666D02*
X0011714Y0090666D01*
X0011714Y0089068D02*
X0011886Y0089068D01*
X0011886Y0087469D02*
X0011714Y0087469D01*
X0013265Y0087469D02*
X0017200Y0087469D01*
X0017200Y0089068D02*
X0015466Y0089068D01*
X0017200Y0085870D02*
X0013397Y0085870D01*
X0015508Y0084272D02*
X0017200Y0084272D01*
X0017200Y0082673D02*
X0016170Y0082673D01*
X0016172Y0081075D02*
X0017200Y0081075D01*
X0017200Y0079476D02*
X0015569Y0079476D01*
X0017200Y0077878D02*
X0013755Y0077878D01*
X0011600Y0076279D02*
X0017200Y0076279D01*
X0017200Y0074681D02*
X0011600Y0074681D01*
X0011600Y0073082D02*
X0017200Y0073082D01*
X0017200Y0071484D02*
X0011600Y0071484D01*
X0011600Y0069885D02*
X0016916Y0069885D01*
X0015317Y0068287D02*
X0011600Y0068287D01*
X0011600Y0066688D02*
X0013719Y0066688D01*
X0011600Y0057097D02*
X0038091Y0057097D01*
X0036109Y0055499D02*
X0014284Y0055499D01*
X0015662Y0053900D02*
X0034907Y0053900D01*
X0034149Y0052302D02*
X0016172Y0052302D01*
X0016078Y0050703D02*
X0033712Y0050703D01*
X0047656Y0041112D02*
X0054180Y0041112D01*
X0053283Y0039514D02*
X0015585Y0039514D01*
X0013845Y0037915D02*
X0052746Y0037915D01*
X0052519Y0034937D02*
X0052605Y0034175D01*
X0052838Y0033155D01*
X0053183Y0032168D01*
X0053637Y0031226D01*
X0054194Y0030340D01*
X0054846Y0029522D01*
X0055585Y0028783D01*
X0056403Y0028131D01*
X0057289Y0027574D01*
X0058231Y0027120D01*
X0059218Y0026775D01*
X0060238Y0026542D01*
X0061000Y0026456D01*
X0061000Y0034937D01*
X0052519Y0034937D01*
X0052544Y0034718D02*
X0015064Y0034718D01*
X0015985Y0033120D02*
X0052850Y0033120D01*
X0053495Y0031521D02*
X0016172Y0031521D01*
X0015754Y0029923D02*
X0054527Y0029923D01*
X0056161Y0028324D02*
X0014507Y0028324D01*
X0011600Y0026726D02*
X0059435Y0026726D01*
X0061000Y0026726D02*
X0062600Y0026726D01*
X0062600Y0026456D02*
X0063362Y0026542D01*
X0064382Y0026775D01*
X0065369Y0027120D01*
X0066311Y0027574D01*
X0067197Y0028131D01*
X0068015Y0028783D01*
X0068754Y0029522D01*
X0069406Y0030340D01*
X0069963Y0031226D01*
X0070417Y0032168D01*
X0070762Y0033155D01*
X0070995Y0034175D01*
X0071081Y0034937D01*
X0062600Y0034937D01*
X0062600Y0026456D01*
X0064165Y0026726D02*
X0097200Y0026726D01*
X0097200Y0028324D02*
X0067439Y0028324D01*
X0069073Y0029923D02*
X0097200Y0029923D01*
X0097200Y0031521D02*
X0070105Y0031521D01*
X0070750Y0033120D02*
X0097200Y0033120D01*
X0097200Y0034718D02*
X0071056Y0034718D01*
X0062600Y0034718D02*
X0061000Y0034718D01*
X0061000Y0033120D02*
X0062600Y0033120D01*
X0062600Y0031521D02*
X0061000Y0031521D01*
X0061000Y0029923D02*
X0062600Y0029923D01*
X0062600Y0028324D02*
X0061000Y0028324D01*
X0061000Y0036317D02*
X0011600Y0036317D01*
X0014655Y0025127D02*
X0097200Y0025127D01*
X0097200Y0023529D02*
X0015816Y0023529D01*
X0016172Y0021930D02*
X0097200Y0021930D01*
X0097200Y0020332D02*
X0015924Y0020332D01*
X0014915Y0018733D02*
X0097200Y0018733D01*
X0097200Y0017134D02*
X0011600Y0017134D01*
X0014204Y0015536D02*
X0097200Y0015536D01*
X0097200Y0013937D02*
X0015646Y0013937D01*
X0016172Y0012339D02*
X0097200Y0012339D01*
X0101400Y0013937D02*
X0102625Y0013937D01*
X0103124Y0015536D02*
X0101400Y0015536D01*
X0101400Y0017134D02*
X0202062Y0017134D01*
X0199396Y0015536D02*
X0110476Y0015536D01*
X0110975Y0013937D02*
X0197954Y0013937D01*
X0197428Y0012339D02*
X0110975Y0012339D01*
X0110975Y0018733D02*
X0198685Y0018733D01*
X0197676Y0020332D02*
X0184551Y0020332D01*
X0185150Y0021930D02*
X0197428Y0021930D01*
X0197784Y0023529D02*
X0185150Y0023529D01*
X0185150Y0025127D02*
X0198945Y0025127D01*
X0202071Y0026726D02*
X0185150Y0026726D01*
X0185150Y0028324D02*
X0199093Y0028324D01*
X0197846Y0029923D02*
X0185150Y0029923D01*
X0185150Y0031521D02*
X0197428Y0031521D01*
X0197615Y0033120D02*
X0185150Y0033120D01*
X0185150Y0034718D02*
X0198536Y0034718D01*
X0199755Y0037915D02*
X0185150Y0037915D01*
X0185150Y0036317D02*
X0202081Y0036317D01*
X0198015Y0039514D02*
X0185150Y0039514D01*
X0185150Y0041112D02*
X0197428Y0041112D01*
X0197445Y0042711D02*
X0185150Y0042711D01*
X0180950Y0042711D02*
X0177172Y0042711D01*
X0178566Y0044309D02*
X0180950Y0044309D01*
X0180950Y0045908D02*
X0179228Y0045908D01*
X0179809Y0047506D02*
X0180950Y0047506D01*
X0180950Y0049105D02*
X0179809Y0049105D01*
X0179809Y0050703D02*
X0180950Y0050703D01*
X0180950Y0052302D02*
X0179243Y0052302D01*
X0178581Y0053900D02*
X0180950Y0053900D01*
X0180950Y0055499D02*
X0177208Y0055499D01*
X0175256Y0057097D02*
X0180950Y0057097D01*
X0180950Y0058696D02*
X0161699Y0058696D01*
X0161699Y0060294D02*
X0180950Y0060294D01*
X0180950Y0061893D02*
X0161699Y0061893D01*
X0161211Y0063491D02*
X0180950Y0063491D01*
X0180950Y0065090D02*
X0160549Y0065090D01*
X0159455Y0066688D02*
X0180950Y0066688D01*
X0180950Y0068287D02*
X0157856Y0068287D01*
X0154631Y0069885D02*
X0180950Y0069885D01*
X0188900Y0069885D02*
X0197861Y0069885D01*
X0197428Y0071484D02*
X0188900Y0071484D01*
X0188900Y0073082D02*
X0197548Y0073082D01*
X0195949Y0074681D02*
X0188900Y0074681D01*
X0188900Y0076279D02*
X0194351Y0076279D01*
X0192752Y0077878D02*
X0188900Y0077878D01*
X0188900Y0079476D02*
X0192200Y0079476D01*
X0192200Y0081075D02*
X0187995Y0081075D01*
X0186400Y0082673D02*
X0192200Y0082673D01*
X0192200Y0084272D02*
X0186400Y0084272D01*
X0186400Y0085870D02*
X0192200Y0085870D01*
X0192200Y0087469D02*
X0186400Y0087469D01*
X0186400Y0089068D02*
X0192200Y0089068D01*
X0192200Y0090666D02*
X0186400Y0090666D01*
X0186400Y0092265D02*
X0192200Y0092265D01*
X0192200Y0093863D02*
X0186400Y0093863D01*
X0186400Y0095462D02*
X0192200Y0095462D01*
X0192200Y0097060D02*
X0186400Y0097060D01*
X0186400Y0098659D02*
X0192200Y0098659D01*
X0192200Y0100257D02*
X0186400Y0100257D01*
X0186400Y0101856D02*
X0192200Y0101856D01*
X0192200Y0103454D02*
X0186400Y0103454D01*
X0186400Y0105053D02*
X0192200Y0105053D01*
X0192200Y0106651D02*
X0186400Y0106651D01*
X0186400Y0108250D02*
X0192200Y0108250D01*
X0192200Y0109848D02*
X0186400Y0109848D01*
X0186400Y0111447D02*
X0192200Y0111447D01*
X0192200Y0113045D02*
X0186400Y0113045D01*
X0186400Y0114644D02*
X0192200Y0114644D01*
X0192200Y0116242D02*
X0186400Y0116242D01*
X0186400Y0117841D02*
X0192200Y0117841D01*
X0192200Y0119439D02*
X0186400Y0119439D01*
X0186400Y0121038D02*
X0192200Y0121038D01*
X0192200Y0122636D02*
X0186400Y0122636D01*
X0186400Y0124235D02*
X0192200Y0124235D01*
X0192200Y0125833D02*
X0186546Y0125833D01*
X0186650Y0127432D02*
X0192200Y0127432D01*
X0192200Y0129030D02*
X0185911Y0129030D01*
X0192200Y0130629D02*
X0175666Y0130629D01*
X0175815Y0130480D02*
X0175480Y0130815D01*
X0175070Y0131052D01*
X0174612Y0131175D01*
X0171800Y0131175D01*
X0168988Y0131175D01*
X0168530Y0131052D01*
X0168120Y0130815D01*
X0167785Y0130480D01*
X0167548Y0130070D01*
X0167425Y0129612D01*
X0167425Y0126800D01*
X0171800Y0126800D01*
X0171800Y0126800D01*
X0171800Y0131175D01*
X0171800Y0126800D01*
X0176175Y0126800D01*
X0176175Y0129612D01*
X0176052Y0130070D01*
X0175815Y0130480D01*
X0176175Y0129030D02*
X0180189Y0129030D01*
X0179450Y0127432D02*
X0176175Y0127432D01*
X0176175Y0126800D02*
X0171800Y0126800D01*
X0171800Y0126800D01*
X0171800Y0122425D01*
X0174612Y0122425D01*
X0175070Y0122548D01*
X0175480Y0122785D01*
X0175815Y0123120D01*
X0176052Y0123530D01*
X0176175Y0123988D01*
X0176175Y0126800D01*
X0176175Y0125833D02*
X0179554Y0125833D01*
X0180524Y0124235D02*
X0176175Y0124235D01*
X0175223Y0122636D02*
X0182200Y0122636D01*
X0182200Y0121038D02*
X0153900Y0121038D01*
X0153900Y0122625D02*
X0155038Y0122625D01*
X0155975Y0123562D01*
X0155975Y0130038D01*
X0155038Y0130975D01*
X0148562Y0130975D01*
X0147625Y0130038D01*
X0147625Y0123562D01*
X0148562Y0122625D01*
X0149700Y0122625D01*
X0149700Y0085975D01*
X0148562Y0085975D01*
X0147625Y0085038D01*
X0147625Y0078562D01*
X0148562Y0077625D01*
X0155038Y0077625D01*
X0155975Y0078562D01*
X0155975Y0085038D01*
X0155038Y0085975D01*
X0153900Y0085975D01*
X0153900Y0122625D01*
X0155049Y0122636D02*
X0158551Y0122636D01*
X0158562Y0122625D02*
X0165038Y0122625D01*
X0165975Y0123562D01*
X0165975Y0130038D01*
X0165038Y0130975D01*
X0158562Y0130975D01*
X0157625Y0130038D01*
X0157625Y0123562D01*
X0158562Y0122625D01*
X0157625Y0124235D02*
X0155975Y0124235D01*
X0155975Y0125833D02*
X0157625Y0125833D01*
X0157625Y0127432D02*
X0155975Y0127432D01*
X0155975Y0129030D02*
X0157625Y0129030D01*
X0158216Y0130629D02*
X0155384Y0130629D01*
X0153394Y0135424D02*
X0192200Y0135424D01*
X0192200Y0133826D02*
X0078046Y0133826D01*
X0076447Y0132227D02*
X0192200Y0132227D01*
X0196400Y0132227D02*
X0202180Y0132227D01*
X0199620Y0130629D02*
X0196400Y0130629D01*
X0196400Y0129030D02*
X0197992Y0129030D01*
X0197428Y0127432D02*
X0196400Y0127432D01*
X0196400Y0125833D02*
X0197469Y0125833D01*
X0198183Y0124235D02*
X0196400Y0124235D01*
X0196400Y0122636D02*
X0200428Y0122636D01*
X0200607Y0121038D02*
X0196400Y0121038D01*
X0196400Y0119439D02*
X0198257Y0119439D01*
X0197499Y0117841D02*
X0196400Y0117841D01*
X0196400Y0116242D02*
X0197428Y0116242D01*
X0197961Y0114644D02*
X0196400Y0114644D01*
X0196400Y0113045D02*
X0199441Y0113045D01*
X0202158Y0111447D02*
X0196400Y0111447D01*
X0196400Y0109848D02*
X0198666Y0109848D01*
X0197669Y0108250D02*
X0196400Y0108250D01*
X0196400Y0106651D02*
X0197428Y0106651D01*
X0197792Y0105053D02*
X0196400Y0105053D01*
X0196400Y0103454D02*
X0198963Y0103454D01*
X0196400Y0101856D02*
X0202148Y0101856D01*
X0199075Y0100257D02*
X0196400Y0100257D01*
X0196400Y0098659D02*
X0197838Y0098659D01*
X0197428Y0097060D02*
X0196400Y0097060D01*
X0196400Y0095462D02*
X0197623Y0095462D01*
X0198554Y0093863D02*
X0196400Y0093863D01*
X0196400Y0092265D02*
X0202139Y0092265D01*
X0202137Y0090666D02*
X0196400Y0090666D01*
X0196400Y0089068D02*
X0202135Y0089068D01*
X0202134Y0087469D02*
X0196400Y0087469D01*
X0196400Y0085870D02*
X0200203Y0085870D01*
X0198092Y0084272D02*
X0196400Y0084272D01*
X0196400Y0082673D02*
X0197430Y0082673D01*
X0197428Y0081075D02*
X0196400Y0081075D01*
X0197093Y0079476D02*
X0198031Y0079476D01*
X0198692Y0077878D02*
X0199845Y0077878D01*
X0200290Y0076279D02*
X0202122Y0076279D01*
X0199131Y0068287D02*
X0188900Y0068287D01*
X0188900Y0066688D02*
X0202112Y0066688D01*
X0198907Y0065090D02*
X0188900Y0065090D01*
X0188900Y0063491D02*
X0197769Y0063491D01*
X0197428Y0061893D02*
X0188900Y0061893D01*
X0188900Y0060294D02*
X0197692Y0060294D01*
X0198722Y0058696D02*
X0188900Y0058696D01*
X0188900Y0057097D02*
X0202103Y0057097D01*
X0199316Y0055499D02*
X0188900Y0055499D01*
X0188900Y0053900D02*
X0197938Y0053900D01*
X0197428Y0052302D02*
X0188900Y0052302D01*
X0188900Y0050703D02*
X0197522Y0050703D01*
X0198313Y0049105D02*
X0189586Y0049105D01*
X0190400Y0047506D02*
X0200742Y0047506D01*
X0200293Y0045908D02*
X0190327Y0045908D01*
X0189400Y0044309D02*
X0198127Y0044309D01*
X0180950Y0041112D02*
X0175168Y0041112D01*
X0180950Y0039514D02*
X0160098Y0039514D01*
X0160760Y0037915D02*
X0180950Y0037915D01*
X0180950Y0036317D02*
X0160912Y0036317D01*
X0160912Y0034718D02*
X0180950Y0034718D01*
X0180950Y0033120D02*
X0160578Y0033120D01*
X0159916Y0031521D02*
X0180950Y0031521D01*
X0180950Y0029923D02*
X0158872Y0029923D01*
X0157273Y0028324D02*
X0180950Y0028324D01*
X0180950Y0026726D02*
X0153855Y0026726D01*
X0149745Y0026726D02*
X0101400Y0026726D01*
X0101400Y0028324D02*
X0102864Y0028324D01*
X0102625Y0028562D02*
X0103562Y0027625D01*
X0110038Y0027625D01*
X0110975Y0028562D01*
X0110975Y0035038D01*
X0110038Y0035975D01*
X0103562Y0035975D01*
X0102625Y0035038D01*
X0102625Y0028562D01*
X0102625Y0029923D02*
X0101400Y0029923D01*
X0101400Y0031521D02*
X0102625Y0031521D01*
X0102625Y0033120D02*
X0101400Y0033120D01*
X0101400Y0034718D02*
X0102625Y0034718D01*
X0106800Y0037915D02*
X0106800Y0037915D01*
X0106800Y0039514D02*
X0106800Y0039514D01*
X0106800Y0041112D02*
X0106800Y0041112D01*
X0106800Y0042711D02*
X0106800Y0042711D01*
X0106800Y0044309D02*
X0106800Y0044309D01*
X0106800Y0045908D02*
X0106800Y0045908D01*
X0110975Y0049105D02*
X0161586Y0049105D01*
X0161586Y0050703D02*
X0154395Y0050703D01*
X0157758Y0052302D02*
X0162152Y0052302D01*
X0162814Y0053900D02*
X0159357Y0053900D01*
X0160508Y0055499D02*
X0164188Y0055499D01*
X0166139Y0057097D02*
X0161170Y0057097D01*
X0162829Y0044309D02*
X0154915Y0044309D01*
X0157712Y0042711D02*
X0164224Y0042711D01*
X0166227Y0041112D02*
X0159311Y0041112D01*
X0149205Y0050703D02*
X0148673Y0050703D01*
X0144243Y0053900D02*
X0110975Y0053900D01*
X0102625Y0058696D02*
X0101400Y0058696D01*
X0101400Y0060294D02*
X0102625Y0060294D01*
X0102625Y0061893D02*
X0101400Y0061893D01*
X0101400Y0063491D02*
X0102625Y0063491D01*
X0102677Y0065090D02*
X0101400Y0065090D01*
X0097200Y0065090D02*
X0070549Y0065090D01*
X0071211Y0063491D02*
X0097200Y0063491D01*
X0097200Y0061893D02*
X0071699Y0061893D01*
X0071699Y0060294D02*
X0097200Y0060294D01*
X0097200Y0058696D02*
X0071699Y0058696D01*
X0071170Y0057097D02*
X0097200Y0057097D01*
X0097200Y0055499D02*
X0070508Y0055499D01*
X0069357Y0053900D02*
X0097200Y0053900D01*
X0097200Y0052302D02*
X0067758Y0052302D01*
X0059205Y0050703D02*
X0052093Y0050703D01*
X0051655Y0052302D02*
X0055842Y0052302D01*
X0054243Y0053900D02*
X0050898Y0053900D01*
X0049695Y0055499D02*
X0053092Y0055499D01*
X0052085Y0047506D02*
X0097200Y0047506D01*
X0110975Y0034718D02*
X0142688Y0034718D01*
X0143022Y0033120D02*
X0110975Y0033120D01*
X0110975Y0031521D02*
X0143684Y0031521D01*
X0144728Y0029923D02*
X0110975Y0029923D01*
X0110736Y0028324D02*
X0146327Y0028324D01*
X0180950Y0025127D02*
X0110885Y0025127D01*
X0102715Y0025127D02*
X0101400Y0025127D01*
X0101400Y0023529D02*
X0102625Y0023529D01*
X0102625Y0021930D02*
X0101400Y0021930D01*
X0101400Y0020332D02*
X0102625Y0020332D01*
X0102625Y0018733D02*
X0101400Y0018733D01*
X0055610Y0042711D02*
X0049659Y0042711D01*
X0069455Y0066688D02*
X0097200Y0066688D01*
X0097817Y0068287D02*
X0067856Y0068287D01*
X0064631Y0069885D02*
X0099416Y0069885D01*
X0101014Y0071484D02*
X0063900Y0071484D01*
X0063900Y0073082D02*
X0102613Y0073082D01*
X0104211Y0074681D02*
X0063900Y0074681D01*
X0063900Y0076279D02*
X0104456Y0076279D01*
X0105287Y0077878D02*
X0063900Y0077878D01*
X0063900Y0079476D02*
X0108654Y0079476D01*
X0111644Y0076279D02*
X0111851Y0076279D01*
X0111587Y0074681D02*
X0113200Y0074681D01*
X0113408Y0073082D02*
X0110674Y0073082D01*
X0125290Y0077878D02*
X0128310Y0077878D01*
X0128562Y0077625D02*
X0135038Y0077625D01*
X0135975Y0078562D01*
X0135975Y0085038D01*
X0135038Y0085975D01*
X0133900Y0085975D01*
X0133900Y0122625D01*
X0135038Y0122625D01*
X0135975Y0123562D01*
X0135975Y0130038D01*
X0135038Y0130975D01*
X0128562Y0130975D01*
X0127625Y0130038D01*
X0127625Y0123562D01*
X0128562Y0122625D01*
X0129700Y0122625D01*
X0129700Y0085975D01*
X0128562Y0085975D01*
X0127625Y0085038D01*
X0127625Y0078562D01*
X0128562Y0077625D01*
X0127625Y0079476D02*
X0125975Y0079476D01*
X0125975Y0081075D02*
X0127625Y0081075D01*
X0127625Y0082673D02*
X0125975Y0082673D01*
X0125975Y0084272D02*
X0127625Y0084272D01*
X0128458Y0085870D02*
X0125142Y0085870D01*
X0123900Y0087469D02*
X0129700Y0087469D01*
X0129700Y0089068D02*
X0123900Y0089068D01*
X0123900Y0090666D02*
X0129700Y0090666D01*
X0129700Y0092265D02*
X0123900Y0092265D01*
X0123900Y0093863D02*
X0129700Y0093863D01*
X0129700Y0095462D02*
X0123900Y0095462D01*
X0123900Y0097060D02*
X0129700Y0097060D01*
X0129700Y0098659D02*
X0123900Y0098659D01*
X0123900Y0100257D02*
X0129700Y0100257D01*
X0129700Y0101856D02*
X0123900Y0101856D01*
X0123900Y0103454D02*
X0129700Y0103454D01*
X0129700Y0105053D02*
X0123900Y0105053D01*
X0123900Y0106651D02*
X0129700Y0106651D01*
X0129700Y0108250D02*
X0123900Y0108250D01*
X0123900Y0109848D02*
X0129700Y0109848D01*
X0129700Y0111447D02*
X0123900Y0111447D01*
X0123900Y0113045D02*
X0129700Y0113045D01*
X0129700Y0114644D02*
X0123900Y0114644D01*
X0123900Y0116242D02*
X0129700Y0116242D01*
X0129700Y0117841D02*
X0123900Y0117841D01*
X0123900Y0119439D02*
X0129700Y0119439D01*
X0129700Y0121038D02*
X0123900Y0121038D01*
X0125049Y0122636D02*
X0128551Y0122636D01*
X0127625Y0124235D02*
X0125975Y0124235D01*
X0125975Y0125833D02*
X0127625Y0125833D01*
X0127625Y0127432D02*
X0125975Y0127432D01*
X0125975Y0129030D02*
X0127625Y0129030D01*
X0128216Y0130629D02*
X0125384Y0130629D01*
X0118216Y0130629D02*
X0115666Y0130629D01*
X0115815Y0130480D02*
X0115480Y0130815D01*
X0115070Y0131052D01*
X0114612Y0131175D01*
X0111800Y0131175D01*
X0108988Y0131175D01*
X0108530Y0131052D01*
X0108120Y0130815D01*
X0107785Y0130480D01*
X0107548Y0130070D01*
X0107425Y0129612D01*
X0107425Y0126800D01*
X0111800Y0126800D01*
X0111800Y0126800D01*
X0111800Y0131175D01*
X0111800Y0126800D01*
X0116175Y0126800D01*
X0116175Y0129612D01*
X0116052Y0130070D01*
X0115815Y0130480D01*
X0116175Y0129030D02*
X0117625Y0129030D01*
X0117625Y0127432D02*
X0116175Y0127432D01*
X0116175Y0126800D02*
X0111800Y0126800D01*
X0111800Y0126800D01*
X0111800Y0122425D01*
X0114612Y0122425D01*
X0115070Y0122548D01*
X0115480Y0122785D01*
X0115815Y0123120D01*
X0116052Y0123530D01*
X0116175Y0123988D01*
X0116175Y0126800D01*
X0116175Y0125833D02*
X0117625Y0125833D01*
X0117625Y0124235D02*
X0116175Y0124235D01*
X0115223Y0122636D02*
X0118551Y0122636D01*
X0119700Y0121038D02*
X0103900Y0121038D01*
X0103900Y0122625D02*
X0105038Y0122625D01*
X0105975Y0123562D01*
X0105975Y0130038D01*
X0105038Y0130975D01*
X0098562Y0130975D01*
X0097625Y0130038D01*
X0097625Y0123562D01*
X0098562Y0122625D01*
X0099700Y0122625D01*
X0099700Y0106650D01*
X0097887Y0106650D01*
X0096950Y0105713D01*
X0096950Y0097887D01*
X0097887Y0096950D01*
X0105713Y0096950D01*
X0106650Y0097887D01*
X0106650Y0105713D01*
X0105713Y0106650D01*
X0103900Y0106650D01*
X0103900Y0122625D01*
X0105049Y0122636D02*
X0108377Y0122636D01*
X0108530Y0122548D02*
X0108988Y0122425D01*
X0111800Y0122425D01*
X0111800Y0126800D01*
X0111800Y0126800D01*
X0111800Y0126800D01*
X0107425Y0126800D01*
X0107425Y0123988D01*
X0107548Y0123530D01*
X0107785Y0123120D01*
X0108120Y0122785D01*
X0108530Y0122548D01*
X0107425Y0124235D02*
X0105975Y0124235D01*
X0105975Y0125833D02*
X0107425Y0125833D01*
X0107425Y0127432D02*
X0105975Y0127432D01*
X0105975Y0129030D02*
X0107425Y0129030D01*
X0107934Y0130629D02*
X0105384Y0130629D01*
X0111800Y0130629D02*
X0111800Y0130629D01*
X0111800Y0129030D02*
X0111800Y0129030D01*
X0111800Y0127432D02*
X0111800Y0127432D01*
X0111800Y0125833D02*
X0111800Y0125833D01*
X0111800Y0124235D02*
X0111800Y0124235D01*
X0111800Y0122636D02*
X0111800Y0122636D01*
X0103900Y0119439D02*
X0119700Y0119439D01*
X0119700Y0117841D02*
X0103900Y0117841D01*
X0103900Y0116242D02*
X0119700Y0116242D01*
X0119700Y0114644D02*
X0103900Y0114644D01*
X0103900Y0113045D02*
X0119700Y0113045D01*
X0119700Y0111447D02*
X0103900Y0111447D01*
X0103900Y0109848D02*
X0119700Y0109848D01*
X0119700Y0108250D02*
X0103900Y0108250D01*
X0103900Y0106651D02*
X0110388Y0106651D01*
X0110617Y0106726D02*
X0109861Y0106480D01*
X0109153Y0106119D01*
X0108510Y0105652D01*
X0107948Y0105090D01*
X0107481Y0104447D01*
X0107120Y0103739D01*
X0106874Y0102983D01*
X0106750Y0102197D01*
X0106750Y0101800D01*
X0111800Y0101800D01*
X0116850Y0101800D01*
X0116850Y0102197D01*
X0116726Y0102983D01*
X0116480Y0103739D01*
X0116119Y0104447D01*
X0115652Y0105090D01*
X0115090Y0105652D01*
X0114447Y0106119D01*
X0113739Y0106480D01*
X0112983Y0106726D01*
X0112197Y0106850D01*
X0111800Y0106850D01*
X0111800Y0101800D01*
X0111800Y0101800D01*
X0111800Y0101800D01*
X0116850Y0101800D01*
X0116850Y0101403D01*
X0116726Y0100617D01*
X0116480Y0099861D01*
X0116119Y0099153D01*
X0115652Y0098510D01*
X0115090Y0097948D01*
X0114447Y0097481D01*
X0113739Y0097120D01*
X0112983Y0096874D01*
X0112197Y0096750D01*
X0111800Y0096750D01*
X0111800Y0101800D01*
X0111800Y0101800D01*
X0111800Y0101800D01*
X0111800Y0106850D01*
X0111403Y0106850D01*
X0110617Y0106726D01*
X0111800Y0106651D02*
X0111800Y0106651D01*
X0113212Y0106651D02*
X0119700Y0106651D01*
X0119700Y0105053D02*
X0115679Y0105053D01*
X0116572Y0103454D02*
X0119700Y0103454D01*
X0119700Y0101856D02*
X0116850Y0101856D01*
X0116609Y0100257D02*
X0119700Y0100257D01*
X0119700Y0098659D02*
X0115760Y0098659D01*
X0113554Y0097060D02*
X0119700Y0097060D01*
X0119700Y0095462D02*
X0098608Y0095462D01*
X0097777Y0097060D02*
X0097010Y0097060D01*
X0096950Y0098659D02*
X0096400Y0098659D01*
X0096400Y0100257D02*
X0096950Y0100257D01*
X0096950Y0101856D02*
X0096400Y0101856D01*
X0096400Y0103454D02*
X0096950Y0103454D01*
X0096950Y0105053D02*
X0096400Y0105053D01*
X0096400Y0106651D02*
X0099700Y0106651D01*
X0099700Y0108250D02*
X0096400Y0108250D01*
X0096400Y0109848D02*
X0099700Y0109848D01*
X0099700Y0111447D02*
X0096400Y0111447D01*
X0096400Y0113045D02*
X0099700Y0113045D01*
X0099700Y0114644D02*
X0096400Y0114644D01*
X0096400Y0116242D02*
X0099700Y0116242D01*
X0099700Y0117841D02*
X0096400Y0117841D01*
X0096400Y0119439D02*
X0099700Y0119439D01*
X0099700Y0121038D02*
X0096400Y0121038D01*
X0096400Y0122636D02*
X0098551Y0122636D01*
X0097625Y0124235D02*
X0075975Y0124235D01*
X0075179Y0125833D02*
X0097625Y0125833D01*
X0097625Y0127432D02*
X0071652Y0127432D01*
X0073250Y0129030D02*
X0097625Y0129030D01*
X0098216Y0130629D02*
X0074849Y0130629D01*
X0072106Y0133826D02*
X0053994Y0133826D01*
X0052395Y0135424D02*
X0073705Y0135424D01*
X0075303Y0137023D02*
X0050797Y0137023D01*
X0049198Y0138621D02*
X0066439Y0138621D01*
X0065308Y0140220D02*
X0048292Y0140220D01*
X0048600Y0141818D02*
X0065000Y0141818D01*
X0065324Y0143417D02*
X0048276Y0143417D01*
X0047124Y0145015D02*
X0066476Y0145015D01*
X0066886Y0148212D02*
X0046714Y0148212D01*
X0048122Y0149811D02*
X0065478Y0149811D01*
X0065000Y0151409D02*
X0048600Y0151409D01*
X0048446Y0153008D02*
X0065154Y0153008D01*
X0066067Y0154606D02*
X0047533Y0154606D01*
X0045727Y0157803D02*
X0067873Y0157803D01*
X0065658Y0159402D02*
X0047942Y0159402D01*
X0048600Y0161001D02*
X0065000Y0161001D01*
X0065000Y0162599D02*
X0048600Y0162599D01*
X0047942Y0164198D02*
X0065658Y0164198D01*
X0067872Y0165796D02*
X0045728Y0165796D01*
X0037872Y0165796D02*
X0011600Y0165796D01*
X0011600Y0164198D02*
X0035658Y0164198D01*
X0035000Y0162599D02*
X0011600Y0162599D01*
X0011600Y0161001D02*
X0035000Y0161001D01*
X0035658Y0159402D02*
X0011600Y0159402D01*
X0011600Y0167395D02*
X0099425Y0167395D01*
X0101023Y0168993D02*
X0011600Y0168993D01*
X0011600Y0170592D02*
X0102622Y0170592D01*
X0104220Y0172190D02*
X0011600Y0172190D01*
X0011600Y0173789D02*
X0097625Y0173789D01*
X0097625Y0175387D02*
X0011600Y0175387D01*
X0011600Y0176986D02*
X0097625Y0176986D01*
X0097625Y0178584D02*
X0011600Y0178584D01*
X0011600Y0180183D02*
X0097770Y0180183D01*
X0097826Y0165796D02*
X0075728Y0165796D01*
X0077942Y0164198D02*
X0096228Y0164198D01*
X0104175Y0156205D02*
X0108235Y0156205D01*
X0106637Y0154606D02*
X0102576Y0154606D01*
X0100978Y0153008D02*
X0105038Y0153008D01*
X0103440Y0151409D02*
X0099379Y0151409D01*
X0097781Y0149811D02*
X0101841Y0149811D01*
X0100243Y0148212D02*
X0076714Y0148212D01*
X0077124Y0145015D02*
X0097046Y0145015D01*
X0098644Y0146614D02*
X0011600Y0146614D01*
X0030402Y0127432D02*
X0054448Y0127432D01*
X0054612Y0126175D02*
X0051800Y0126175D01*
X0048988Y0126175D01*
X0048530Y0126052D01*
X0048120Y0125815D01*
X0047785Y0125480D01*
X0047548Y0125070D01*
X0047425Y0124612D01*
X0047425Y0121800D01*
X0051800Y0121800D01*
X0051800Y0121800D01*
X0051800Y0126175D01*
X0051800Y0121800D01*
X0056175Y0121800D01*
X0056175Y0124612D01*
X0056052Y0125070D01*
X0055815Y0125480D01*
X0055480Y0125815D01*
X0055070Y0126052D01*
X0054612Y0126175D01*
X0055449Y0125833D02*
X0056047Y0125833D01*
X0056175Y0124235D02*
X0057200Y0124235D01*
X0057625Y0122636D02*
X0056175Y0122636D01*
X0056175Y0121800D02*
X0056175Y0118988D01*
X0056052Y0118530D01*
X0055815Y0118120D01*
X0055480Y0117785D01*
X0055070Y0117548D01*
X0054612Y0117425D01*
X0051800Y0117425D01*
X0051800Y0121800D01*
X0051800Y0121800D01*
X0051800Y0121800D01*
X0051800Y0121800D01*
X0056175Y0121800D01*
X0056175Y0121038D02*
X0057625Y0121038D01*
X0057625Y0119439D02*
X0056175Y0119439D01*
X0055536Y0117841D02*
X0058347Y0117841D01*
X0051800Y0117841D02*
X0051800Y0117841D01*
X0051800Y0117425D02*
X0051800Y0121800D01*
X0047425Y0121800D01*
X0047425Y0118988D01*
X0047548Y0118530D01*
X0047785Y0118120D01*
X0048120Y0117785D01*
X0048530Y0117548D01*
X0048988Y0117425D01*
X0051800Y0117425D01*
X0051800Y0119439D02*
X0051800Y0119439D01*
X0051800Y0121038D02*
X0051800Y0121038D01*
X0051800Y0122636D02*
X0051800Y0122636D01*
X0051800Y0124235D02*
X0051800Y0124235D01*
X0051800Y0125833D02*
X0051800Y0125833D01*
X0052850Y0129030D02*
X0032000Y0129030D01*
X0033599Y0130629D02*
X0051251Y0130629D01*
X0049653Y0132227D02*
X0035197Y0132227D01*
X0036796Y0133826D02*
X0048054Y0133826D01*
X0046456Y0135424D02*
X0038394Y0135424D01*
X0039993Y0137023D02*
X0044857Y0137023D01*
X0048151Y0125833D02*
X0028803Y0125833D01*
X0027205Y0124235D02*
X0047425Y0124235D01*
X0047425Y0122636D02*
X0025606Y0122636D01*
X0024008Y0121038D02*
X0047425Y0121038D01*
X0047425Y0119439D02*
X0022409Y0119439D01*
X0020811Y0117841D02*
X0048064Y0117841D01*
X0048988Y0108675D02*
X0048530Y0108552D01*
X0048120Y0108315D01*
X0047785Y0107980D01*
X0047548Y0107570D01*
X0047425Y0107112D01*
X0047425Y0104300D01*
X0051800Y0104300D01*
X0051800Y0104300D01*
X0051800Y0108675D01*
X0048988Y0108675D01*
X0048054Y0108250D02*
X0014432Y0108250D01*
X0013555Y0106037D02*
X0012871Y0106259D01*
X0012160Y0106372D01*
X0011886Y0106372D01*
X0011886Y0101886D01*
X0016372Y0101886D01*
X0016372Y0102160D01*
X0016259Y0102871D01*
X0016037Y0103555D01*
X0015710Y0104196D01*
X0015287Y0104778D01*
X0014778Y0105287D01*
X0014196Y0105710D01*
X0013555Y0106037D01*
X0015013Y0105053D02*
X0047425Y0105053D01*
X0047425Y0104300D02*
X0047425Y0101488D01*
X0047548Y0101030D01*
X0047785Y0100620D01*
X0048120Y0100285D01*
X0048530Y0100048D01*
X0048988Y0099925D01*
X0051800Y0099925D01*
X0054612Y0099925D01*
X0055070Y0100048D01*
X0055480Y0100285D01*
X0055815Y0100620D01*
X0056052Y0101030D01*
X0056175Y0101488D01*
X0056175Y0104300D01*
X0056175Y0107112D01*
X0056052Y0107570D01*
X0055815Y0107980D01*
X0055480Y0108315D01*
X0055070Y0108552D01*
X0054612Y0108675D01*
X0051800Y0108675D01*
X0051800Y0104300D01*
X0056175Y0104300D01*
X0051800Y0104300D01*
X0051800Y0104300D01*
X0051800Y0099925D01*
X0051800Y0104300D01*
X0051800Y0104300D01*
X0051800Y0104300D01*
X0047425Y0104300D01*
X0047425Y0103454D02*
X0016069Y0103454D01*
X0016106Y0100257D02*
X0048168Y0100257D01*
X0047425Y0101856D02*
X0011886Y0101856D01*
X0011886Y0103454D02*
X0011714Y0103454D01*
X0011714Y0105053D02*
X0011886Y0105053D01*
X0011600Y0106651D02*
X0047425Y0106651D01*
X0051800Y0106651D02*
X0051800Y0106651D01*
X0051800Y0105053D02*
X0051800Y0105053D01*
X0051800Y0103454D02*
X0051800Y0103454D01*
X0051800Y0101856D02*
X0051800Y0101856D01*
X0051800Y0100257D02*
X0051800Y0100257D01*
X0055432Y0100257D02*
X0058431Y0100257D01*
X0057625Y0101856D02*
X0056175Y0101856D01*
X0056175Y0103454D02*
X0057625Y0103454D01*
X0057625Y0105053D02*
X0056175Y0105053D01*
X0056175Y0106651D02*
X0057625Y0106651D01*
X0058337Y0108250D02*
X0055546Y0108250D01*
X0051800Y0108250D02*
X0051800Y0108250D01*
X0065263Y0108250D02*
X0068337Y0108250D01*
X0067625Y0106651D02*
X0065975Y0106651D01*
X0065975Y0105053D02*
X0067625Y0105053D01*
X0067625Y0103454D02*
X0065975Y0103454D01*
X0065975Y0101856D02*
X0066386Y0101856D01*
X0071800Y0090666D02*
X0071800Y0090666D01*
X0071800Y0089068D02*
X0071800Y0089068D01*
X0071800Y0087469D02*
X0071800Y0087469D01*
X0071800Y0085870D02*
X0071800Y0085870D01*
X0071800Y0084272D02*
X0071800Y0084272D01*
X0071800Y0082673D02*
X0071800Y0082673D01*
X0058514Y0082673D02*
X0055086Y0082673D01*
X0055038Y0082625D02*
X0055975Y0083562D01*
X0055975Y0090038D01*
X0055038Y0090975D01*
X0048562Y0090975D01*
X0047625Y0090038D01*
X0047625Y0083562D01*
X0048562Y0082625D01*
X0055038Y0082625D01*
X0055975Y0084272D02*
X0057625Y0084272D01*
X0057625Y0085870D02*
X0055975Y0085870D01*
X0055975Y0087469D02*
X0057625Y0087469D01*
X0057625Y0089068D02*
X0055975Y0089068D01*
X0055346Y0090666D02*
X0058254Y0090666D01*
X0048254Y0090666D02*
X0045346Y0090666D01*
X0045975Y0089068D02*
X0047625Y0089068D01*
X0047625Y0087469D02*
X0045975Y0087469D01*
X0045975Y0085870D02*
X0047625Y0085870D01*
X0047625Y0084272D02*
X0045975Y0084272D01*
X0045086Y0082673D02*
X0048514Y0082673D01*
X0017614Y0114644D02*
X0092200Y0114644D01*
X0092200Y0116242D02*
X0019212Y0116242D01*
X0011886Y0100257D02*
X0011714Y0100257D01*
X0011714Y0098659D02*
X0011886Y0098659D01*
X0055593Y0132227D02*
X0070507Y0132227D01*
X0068421Y0125833D02*
X0065179Y0125833D01*
X0065975Y0124235D02*
X0067625Y0124235D01*
X0067625Y0122636D02*
X0065975Y0122636D01*
X0065975Y0121038D02*
X0067625Y0121038D01*
X0067625Y0119439D02*
X0065975Y0119439D01*
X0065253Y0117841D02*
X0068347Y0117841D01*
X0075253Y0117841D02*
X0092200Y0117841D01*
X0092200Y0119439D02*
X0075975Y0119439D01*
X0098190Y0140220D02*
X0149700Y0140220D01*
X0149700Y0141818D02*
X0099788Y0141818D01*
X0101387Y0143417D02*
X0149700Y0143417D01*
X0149700Y0145015D02*
X0102985Y0145015D01*
X0104584Y0146614D02*
X0149700Y0146614D01*
X0149700Y0148212D02*
X0106182Y0148212D01*
X0107781Y0149811D02*
X0149700Y0149811D01*
X0149700Y0151409D02*
X0109379Y0151409D01*
X0110978Y0153008D02*
X0149700Y0153008D01*
X0149700Y0154606D02*
X0112576Y0154606D01*
X0114175Y0156205D02*
X0149700Y0156205D01*
X0149700Y0157803D02*
X0115773Y0157803D01*
X0117372Y0159402D02*
X0149700Y0159402D01*
X0149700Y0161001D02*
X0118970Y0161001D01*
X0120569Y0162599D02*
X0149700Y0162599D01*
X0149700Y0164198D02*
X0122167Y0164198D01*
X0123766Y0165796D02*
X0149700Y0165796D01*
X0149700Y0167395D02*
X0125364Y0167395D01*
X0126963Y0168993D02*
X0149700Y0168993D01*
X0149700Y0170592D02*
X0128561Y0170592D01*
X0130160Y0172190D02*
X0149700Y0172190D01*
X0147625Y0173789D02*
X0145975Y0173789D01*
X0145975Y0173562D02*
X0145975Y0180038D01*
X0145038Y0180975D01*
X0138562Y0180975D01*
X0137625Y0180038D01*
X0137625Y0173562D01*
X0138562Y0172625D01*
X0145038Y0172625D01*
X0145975Y0173562D01*
X0145975Y0175387D02*
X0147625Y0175387D01*
X0147625Y0176986D02*
X0145975Y0176986D01*
X0145975Y0178584D02*
X0147625Y0178584D01*
X0147770Y0180183D02*
X0145830Y0180183D01*
X0137770Y0180183D02*
X0135830Y0180183D01*
X0135975Y0178584D02*
X0137625Y0178584D01*
X0137625Y0176986D02*
X0135975Y0176986D01*
X0135975Y0175387D02*
X0137625Y0175387D01*
X0137625Y0173789D02*
X0135975Y0173789D01*
X0127417Y0175387D02*
X0125975Y0175387D01*
X0125975Y0176986D02*
X0127625Y0176986D01*
X0127625Y0178584D02*
X0125975Y0178584D01*
X0125830Y0180183D02*
X0127770Y0180183D01*
X0124220Y0172190D02*
X0120160Y0172190D01*
X0118561Y0170592D02*
X0122622Y0170592D01*
X0121023Y0168993D02*
X0116963Y0168993D01*
X0115364Y0167395D02*
X0119425Y0167395D01*
X0117826Y0165796D02*
X0113766Y0165796D01*
X0112167Y0164198D02*
X0116228Y0164198D01*
X0114629Y0162599D02*
X0110569Y0162599D01*
X0108970Y0161001D02*
X0113031Y0161001D01*
X0111432Y0159402D02*
X0107372Y0159402D01*
X0105773Y0157803D02*
X0109834Y0157803D01*
X0096637Y0154606D02*
X0077533Y0154606D01*
X0106650Y0105053D02*
X0107921Y0105053D01*
X0107028Y0103454D02*
X0106650Y0103454D01*
X0106650Y0101856D02*
X0106750Y0101856D01*
X0106750Y0101800D02*
X0106750Y0101403D01*
X0106874Y0100617D01*
X0107120Y0099861D01*
X0107481Y0099153D01*
X0107948Y0098510D01*
X0108510Y0097948D01*
X0109153Y0097481D01*
X0109861Y0097120D01*
X0110617Y0096874D01*
X0111403Y0096750D01*
X0111800Y0096750D01*
X0111800Y0101800D01*
X0106750Y0101800D01*
X0106650Y0100257D02*
X0106991Y0100257D01*
X0106650Y0098659D02*
X0107840Y0098659D01*
X0105823Y0097060D02*
X0110046Y0097060D01*
X0111800Y0097060D02*
X0111800Y0097060D01*
X0111800Y0098659D02*
X0111800Y0098659D01*
X0111800Y0100257D02*
X0111800Y0100257D01*
X0111800Y0101856D02*
X0111800Y0101856D01*
X0111800Y0103454D02*
X0111800Y0103454D01*
X0111800Y0105053D02*
X0111800Y0105053D01*
X0133900Y0105053D02*
X0139700Y0105053D01*
X0139700Y0106651D02*
X0133900Y0106651D01*
X0133900Y0108250D02*
X0139700Y0108250D01*
X0139700Y0109848D02*
X0133900Y0109848D01*
X0133900Y0111447D02*
X0139700Y0111447D01*
X0139700Y0113045D02*
X0133900Y0113045D01*
X0133900Y0114644D02*
X0139700Y0114644D01*
X0139700Y0116242D02*
X0133900Y0116242D01*
X0133900Y0117841D02*
X0139700Y0117841D01*
X0139700Y0119439D02*
X0133900Y0119439D01*
X0133900Y0121038D02*
X0139700Y0121038D01*
X0139700Y0122625D02*
X0138562Y0122625D01*
X0137625Y0123562D01*
X0137625Y0130038D01*
X0138562Y0130975D01*
X0145038Y0130975D01*
X0145975Y0130038D01*
X0145975Y0123562D01*
X0145038Y0122625D01*
X0143900Y0122625D01*
X0143900Y0085975D01*
X0145038Y0085975D01*
X0145975Y0085038D01*
X0145975Y0078562D01*
X0145038Y0077625D01*
X0138562Y0077625D01*
X0137625Y0078562D01*
X0137625Y0085038D01*
X0138562Y0085975D01*
X0139700Y0085975D01*
X0139700Y0122625D01*
X0138551Y0122636D02*
X0135049Y0122636D01*
X0135975Y0124235D02*
X0137625Y0124235D01*
X0137625Y0125833D02*
X0135975Y0125833D01*
X0135975Y0127432D02*
X0137625Y0127432D01*
X0137625Y0129030D02*
X0135975Y0129030D01*
X0135384Y0130629D02*
X0138216Y0130629D01*
X0145384Y0130629D02*
X0148216Y0130629D01*
X0147625Y0129030D02*
X0145975Y0129030D01*
X0145975Y0127432D02*
X0147625Y0127432D01*
X0147625Y0125833D02*
X0145975Y0125833D01*
X0145975Y0124235D02*
X0147625Y0124235D01*
X0148551Y0122636D02*
X0145049Y0122636D01*
X0143900Y0121038D02*
X0149700Y0121038D01*
X0149700Y0119439D02*
X0143900Y0119439D01*
X0143900Y0117841D02*
X0149700Y0117841D01*
X0149700Y0116242D02*
X0143900Y0116242D01*
X0143900Y0114644D02*
X0149700Y0114644D01*
X0149700Y0113045D02*
X0143900Y0113045D01*
X0143900Y0111447D02*
X0149700Y0111447D01*
X0149700Y0109848D02*
X0143900Y0109848D01*
X0143900Y0108250D02*
X0149700Y0108250D01*
X0149700Y0106651D02*
X0143900Y0106651D01*
X0143900Y0105053D02*
X0149700Y0105053D01*
X0149700Y0103454D02*
X0143900Y0103454D01*
X0143900Y0101856D02*
X0149700Y0101856D01*
X0149700Y0100257D02*
X0143900Y0100257D01*
X0143900Y0098659D02*
X0149700Y0098659D01*
X0149700Y0097060D02*
X0143900Y0097060D01*
X0143900Y0095462D02*
X0149700Y0095462D01*
X0149700Y0093863D02*
X0143900Y0093863D01*
X0143900Y0092265D02*
X0149700Y0092265D01*
X0149700Y0090666D02*
X0143900Y0090666D01*
X0143900Y0089068D02*
X0149700Y0089068D01*
X0149700Y0087469D02*
X0143900Y0087469D01*
X0145142Y0085870D02*
X0148458Y0085870D01*
X0147625Y0084272D02*
X0145975Y0084272D01*
X0145975Y0082673D02*
X0147625Y0082673D01*
X0147625Y0081075D02*
X0145975Y0081075D01*
X0145975Y0079476D02*
X0147625Y0079476D01*
X0148310Y0077878D02*
X0145290Y0077878D01*
X0138310Y0077878D02*
X0135290Y0077878D01*
X0135975Y0079476D02*
X0137625Y0079476D01*
X0137625Y0081075D02*
X0135975Y0081075D01*
X0135975Y0082673D02*
X0137625Y0082673D01*
X0137625Y0084272D02*
X0135975Y0084272D01*
X0135142Y0085870D02*
X0138458Y0085870D01*
X0139700Y0087469D02*
X0133900Y0087469D01*
X0133900Y0089068D02*
X0139700Y0089068D01*
X0139700Y0090666D02*
X0133900Y0090666D01*
X0133900Y0092265D02*
X0139700Y0092265D01*
X0139700Y0093863D02*
X0133900Y0093863D01*
X0133900Y0095462D02*
X0139700Y0095462D01*
X0139700Y0097060D02*
X0133900Y0097060D01*
X0133900Y0098659D02*
X0139700Y0098659D01*
X0139700Y0100257D02*
X0133900Y0100257D01*
X0133900Y0101856D02*
X0139700Y0101856D01*
X0139700Y0103454D02*
X0133900Y0103454D01*
X0153900Y0103454D02*
X0182200Y0103454D01*
X0182200Y0101856D02*
X0153900Y0101856D01*
X0153900Y0100257D02*
X0182200Y0100257D01*
X0182200Y0098659D02*
X0153900Y0098659D01*
X0153900Y0097060D02*
X0182200Y0097060D01*
X0182200Y0095462D02*
X0153900Y0095462D01*
X0153900Y0093863D02*
X0182200Y0093863D01*
X0182200Y0092265D02*
X0153900Y0092265D01*
X0153900Y0090666D02*
X0182200Y0090666D01*
X0182200Y0089068D02*
X0153900Y0089068D01*
X0153900Y0087469D02*
X0182200Y0087469D01*
X0182200Y0085870D02*
X0155142Y0085870D01*
X0155975Y0084272D02*
X0182200Y0084272D01*
X0182200Y0082673D02*
X0155975Y0082673D01*
X0155975Y0081075D02*
X0180984Y0081075D01*
X0179744Y0079476D02*
X0155975Y0079476D01*
X0155290Y0077878D02*
X0179450Y0077878D01*
X0182200Y0105053D02*
X0153900Y0105053D01*
X0153900Y0106651D02*
X0182200Y0106651D01*
X0182200Y0108250D02*
X0153900Y0108250D01*
X0153900Y0109848D02*
X0182200Y0109848D01*
X0182200Y0111447D02*
X0153900Y0111447D01*
X0153900Y0113045D02*
X0182200Y0113045D01*
X0182200Y0114644D02*
X0153900Y0114644D01*
X0153900Y0116242D02*
X0182200Y0116242D01*
X0182200Y0117841D02*
X0153900Y0117841D01*
X0153900Y0119439D02*
X0182200Y0119439D01*
X0171800Y0122425D02*
X0171800Y0126800D01*
X0171800Y0126800D01*
X0171800Y0126800D01*
X0167425Y0126800D01*
X0167425Y0123988D01*
X0167548Y0123530D01*
X0167785Y0123120D01*
X0168120Y0122785D01*
X0168530Y0122548D01*
X0168988Y0122425D01*
X0171800Y0122425D01*
X0171800Y0122636D02*
X0171800Y0122636D01*
X0171800Y0124235D02*
X0171800Y0124235D01*
X0171800Y0125833D02*
X0171800Y0125833D01*
X0171800Y0127432D02*
X0171800Y0127432D01*
X0171800Y0129030D02*
X0171800Y0129030D01*
X0171800Y0130629D02*
X0171800Y0130629D01*
X0167934Y0130629D02*
X0165384Y0130629D01*
X0165975Y0129030D02*
X0167425Y0129030D01*
X0167425Y0127432D02*
X0165975Y0127432D01*
X0165975Y0125833D02*
X0167425Y0125833D01*
X0167425Y0124235D02*
X0165975Y0124235D01*
X0165049Y0122636D02*
X0168377Y0122636D01*
X0153900Y0137023D02*
X0192200Y0137023D01*
X0192200Y0138621D02*
X0153900Y0138621D01*
X0153900Y0140220D02*
X0192200Y0140220D01*
X0192200Y0141818D02*
X0153900Y0141818D01*
X0153900Y0143417D02*
X0192200Y0143417D01*
X0192200Y0145015D02*
X0153900Y0145015D01*
X0153900Y0146614D02*
X0192200Y0146614D01*
X0192200Y0148212D02*
X0153900Y0148212D01*
X0153900Y0149811D02*
X0192200Y0149811D01*
X0192200Y0151409D02*
X0153900Y0151409D01*
X0153900Y0153008D02*
X0192200Y0153008D01*
X0192200Y0154606D02*
X0153900Y0154606D01*
X0153900Y0156205D02*
X0192200Y0156205D01*
X0192200Y0157803D02*
X0153900Y0157803D01*
X0153900Y0159402D02*
X0192200Y0159402D01*
X0192200Y0161001D02*
X0153900Y0161001D01*
X0153900Y0162599D02*
X0192200Y0162599D01*
X0192200Y0164198D02*
X0153900Y0164198D01*
X0153900Y0165796D02*
X0192200Y0165796D01*
X0192200Y0167395D02*
X0153900Y0167395D01*
X0153900Y0168993D02*
X0192200Y0168993D01*
X0192200Y0170592D02*
X0153900Y0170592D01*
X0153900Y0172190D02*
X0192200Y0172190D01*
X0192200Y0173789D02*
X0175975Y0173789D01*
X0175975Y0175387D02*
X0192200Y0175387D01*
X0192200Y0176986D02*
X0175975Y0176986D01*
X0175975Y0178584D02*
X0192200Y0178584D01*
X0192200Y0180183D02*
X0175830Y0180183D01*
X0169751Y0181781D02*
X0192200Y0181781D01*
X0196400Y0181781D02*
X0202230Y0181781D01*
X0199038Y0183380D02*
X0196400Y0183380D01*
X0196400Y0184978D02*
X0197823Y0184978D01*
X0197428Y0186577D02*
X0011600Y0186577D01*
X0011600Y0184978D02*
X0167008Y0184978D01*
X0165410Y0183380D02*
X0011600Y0183380D01*
X0011600Y0181781D02*
X0163811Y0181781D01*
X0166554Y0178584D02*
X0167625Y0178584D01*
X0167625Y0176986D02*
X0165975Y0176986D01*
X0165975Y0175387D02*
X0167625Y0175387D01*
X0167625Y0173789D02*
X0165975Y0173789D01*
X0157625Y0173789D02*
X0155975Y0173789D01*
X0155975Y0175387D02*
X0157625Y0175387D01*
X0157625Y0176986D02*
X0155975Y0176986D01*
X0155975Y0178584D02*
X0157625Y0178584D01*
X0157770Y0180183D02*
X0155830Y0180183D01*
X0196400Y0180183D02*
X0199000Y0180183D01*
X0197807Y0178584D02*
X0196400Y0178584D01*
X0196400Y0176986D02*
X0197428Y0176986D01*
X0197653Y0175387D02*
X0196400Y0175387D01*
X0196400Y0173789D02*
X0198629Y0173789D01*
X0196400Y0172190D02*
X0202220Y0172190D01*
X0199530Y0170592D02*
X0196400Y0170592D01*
X0196400Y0168993D02*
X0197977Y0168993D01*
X0197428Y0167395D02*
X0196400Y0167395D01*
X0196400Y0165796D02*
X0197484Y0165796D01*
X0198220Y0164198D02*
X0196400Y0164198D01*
X0196400Y0162599D02*
X0200518Y0162599D01*
X0199974Y0161001D02*
X0196400Y0161001D01*
X0196400Y0159402D02*
X0198040Y0159402D01*
X0197330Y0157803D02*
X0196400Y0157803D01*
X0197228Y0156714D02*
X0197228Y0156440D01*
X0197341Y0155729D01*
X0197563Y0155045D01*
X0197890Y0154404D01*
X0198313Y0153822D01*
X0198822Y0153313D01*
X0199404Y0152890D01*
X0200045Y0152563D01*
X0200729Y0152341D01*
X0201440Y0152228D01*
X0201714Y0152228D01*
X0201714Y0156714D01*
X0197228Y0156714D01*
X0197266Y0156205D02*
X0196400Y0156205D01*
X0196400Y0154606D02*
X0197787Y0154606D01*
X0196400Y0153008D02*
X0199242Y0153008D01*
X0201714Y0153008D02*
X0201886Y0153008D01*
X0201886Y0154606D02*
X0201714Y0154606D01*
X0201714Y0156205D02*
X0201886Y0156205D01*
X0201886Y0157803D02*
X0201714Y0157803D01*
X0201714Y0159402D02*
X0201886Y0159402D01*
X0201886Y0161001D02*
X0201714Y0161001D01*
X0202199Y0151409D02*
X0196400Y0151409D01*
X0196400Y0149811D02*
X0198628Y0149811D01*
X0197653Y0148212D02*
X0196400Y0148212D01*
X0196400Y0146614D02*
X0197428Y0146614D01*
X0197807Y0145015D02*
X0196400Y0145015D01*
X0196400Y0143417D02*
X0199001Y0143417D01*
X0196400Y0141818D02*
X0202189Y0141818D01*
X0199037Y0140220D02*
X0196400Y0140220D01*
X0196400Y0138621D02*
X0197823Y0138621D01*
X0197428Y0137023D02*
X0196400Y0137023D01*
X0196400Y0135424D02*
X0197638Y0135424D01*
X0198592Y0133826D02*
X0196400Y0133826D01*
D19*
X0126800Y0151800D03*
X0086800Y0066800D03*
X0026800Y0031800D03*
D20*
X0108050Y0075550D03*
X0116800Y0074300D03*
X0183050Y0078050D03*
X0186800Y0046800D03*
X0183050Y0126800D03*
M02*
