G75*
%MOIN*%
%OFA0B0*%
%FSLAX25Y25*%
%IPPOS*%
%LPD*%
%AMOC8*
5,1,8,0,0,1.08239X$1,22.5*
%
%ADD10C,0.06343*%
%ADD11R,0.05950X0.05950*%
%ADD12C,0.17398*%
%ADD13C,0.15824*%
%ADD14C,0.07300*%
%ADD15R,0.07300X0.07300*%
%ADD16C,0.06000*%
%ADD17C,0.06115*%
%ADD18C,0.04800*%
D10*
X0011800Y0011800D03*
X0011800Y0021800D03*
X0011800Y0031800D03*
X0011800Y0041800D03*
X0011800Y0051800D03*
X0011800Y0061800D03*
X0011800Y0081800D03*
X0011800Y0091800D03*
X0011800Y0101800D03*
X0011800Y0111800D03*
X0011800Y0121800D03*
X0011800Y0131800D03*
X0011800Y0141800D03*
X0011800Y0151800D03*
X0201800Y0146800D03*
X0201800Y0136800D03*
X0201800Y0126800D03*
X0201800Y0116800D03*
X0201800Y0106800D03*
X0201800Y0096800D03*
X0201800Y0081800D03*
X0201800Y0071800D03*
X0201800Y0061800D03*
X0201800Y0051800D03*
X0201800Y0041800D03*
X0201800Y0031800D03*
X0201800Y0021800D03*
X0201800Y0011800D03*
X0201800Y0156800D03*
X0201800Y0166800D03*
X0201800Y0176800D03*
X0201800Y0186800D03*
D11*
X0171800Y0176800D03*
X0161800Y0176800D03*
X0151800Y0176800D03*
X0141800Y0176800D03*
X0131800Y0176800D03*
X0121800Y0176800D03*
X0111800Y0176800D03*
X0101800Y0176800D03*
X0101800Y0126800D03*
X0111800Y0126800D03*
X0121800Y0126800D03*
X0131800Y0126800D03*
X0141800Y0126800D03*
X0151800Y0126800D03*
X0161800Y0126800D03*
X0171800Y0126800D03*
X0151800Y0081800D03*
X0141800Y0081800D03*
X0131800Y0081800D03*
X0121800Y0081800D03*
X0106800Y0061800D03*
X0106800Y0051800D03*
X0106800Y0041800D03*
X0106800Y0031800D03*
X0106800Y0021800D03*
X0106800Y0011800D03*
X0071800Y0086800D03*
X0061800Y0086800D03*
X0051800Y0086800D03*
X0041800Y0086800D03*
X0051800Y0104300D03*
X0061800Y0104300D03*
X0071800Y0104300D03*
X0071800Y0121800D03*
X0061800Y0121800D03*
X0051800Y0121800D03*
D12*
X0061800Y0060343D03*
X0151800Y0060343D03*
D13*
X0170698Y0049123D03*
X0151800Y0035737D03*
X0061800Y0035737D03*
X0042902Y0049123D03*
D14*
X0111800Y0101800D03*
D15*
X0101800Y0101800D03*
D16*
X0074400Y0141800D02*
X0069200Y0141800D01*
X0069200Y0151800D02*
X0074400Y0151800D01*
X0074400Y0161800D02*
X0069200Y0161800D01*
X0044400Y0161800D02*
X0039200Y0161800D01*
X0039200Y0151800D02*
X0044400Y0151800D01*
X0044400Y0141800D02*
X0039200Y0141800D01*
D17*
X0086800Y0066800D03*
X0026800Y0031800D03*
X0126800Y0151800D03*
D18*
X0183050Y0126800D03*
X0183050Y0078050D03*
X0186800Y0046800D03*
X0116800Y0074300D03*
X0108050Y0075550D03*
M02*
