%
M48
M72
T01C0.02400
T02C0.02756
T03C0.03150
T04C0.03200
T05C0.03543
T06C0.11024
T07C0.12598
%
T01
X108050Y75550
X116800Y74300
X183050Y78050
X186800Y46800
X183050Y126800
T02
X111800Y101800
X101800Y101800
T03
X121800Y81800
X131800Y81800
X141800Y81800
X151800Y81800
X106800Y61800
X106800Y51800
X106800Y41800
X106800Y31800
X106800Y21800
X106800Y11800
X71800Y86800
X61800Y86800
X51800Y86800
X41800Y86800
X51800Y104300
X61800Y104300
X71800Y104300
X71800Y121800
X61800Y121800
X51800Y121800
X101800Y126800
X111800Y126800
X121800Y126800
X131800Y126800
X141800Y126800
X151800Y126800
X161800Y126800
X171800Y126800
X171800Y176800
X161800Y176800
X151800Y176800
X141800Y176800
X131800Y176800
X121800Y176800
X111800Y176800
X101800Y176800
T04
X71800Y161800
X71800Y151800
X71800Y141800
X41800Y141800
X41800Y151800
X41800Y161800
T05
X11800Y11800
X11800Y21800
X11800Y31800
X11800Y41800
X11800Y51800
X11800Y61800
X11800Y81800
X11800Y91800
X11800Y101800
X11800Y111800
X11800Y121800
X11800Y131800
X11800Y141800
X11800Y151800
X86800Y66800
X26800Y31800
X126800Y151800
X201800Y146800
X201800Y136800
X201800Y126800
X201800Y116800
X201800Y106800
X201800Y96800
X201800Y81800
X201800Y71800
X201800Y61800
X201800Y51800
X201800Y41800
X201800Y31800
X201800Y21800
X201800Y11800
X201800Y156800
X201800Y166800
X201800Y176800
X201800Y186800
T06
X170698Y49123
X151800Y35737
X61800Y35737
X42902Y49123
T07
X61800Y60343
X151800Y60343
M30
